<?xml version="1.0" encoding="utf-8"?>
<!-- Generator: Adobe Illustrator 24.1.2, SVG Export Plug-In . SVG Version: 6.00 Build 0)  -->
<svg version="1.1" id="Layer_1" xmlns="http://www.w3.org/2000/svg" xmlns:xlink="http://www.w3.org/1999/xlink" x="0px" y="0px"
	 viewBox="0 0 682 358.1" style="enable-background:new 0 0 682 358.1;" xml:space="preserve">
<style type="text/css">
	.st0{fill:#F2F2F2;stroke:#808080;stroke-width:0.2;}
</style>
<desc  style="-webkit-tap-highlight-color: rgba(0, 0, 0, 0);">Created with kartograph 0.8.1 and Raphaël 2.2.0</desc>
<path id="path_31" class="st0" d="M460.2,118.6L460.2,118.6L460.2,118.6l-0.6,0l-0.3,0.2l0.4,0.3l0,0l-0.2,0.1l-5.6,2.6l0.7,1.2
	l-1.6,3.7l0,1.4l-1,0.7l-0.3,2.9l-4.3,1.6l-1.2,1.2l0.1,2.4l-4.1,1.1l-6-0.9l-0.8-0.3l0.4-0.7l0.6-3.1l-1.9-0.7l-1.6-6l0.7-0.6
	l0.2-3l-0.1-0.2l0.2,0l2.1,1.1l1.5-0.6l0-1l2.5-1.2l0.2-1.8l3.2-0.7l0.1,0l0.6-0.1l0.5,0.1l0.8,0.2l0.6,0.1l0,0.1l0,0.1l5.2-3.2
	l1.3,0.6l1.1,3.3l3.5-1.5L460.2,118.6"/>
<path id="path_32" class="st0" d="M339.4,224.9l0.1-0.1l7.1,0.1l2.4,5.4l3.3-0.2l1.1-2.4l2-0.2l0,0.8l2.5,0.1l0,5.3l1,2.3l0,2
	l3.4-0.8l0.1,0l0,0.3l-0.4,4.9h-3.9l-0.2,7.3l2.4,3.7l0.4,0.4l-0.7,0.1l-3.6,0.7l-5.3-0.6l-0.9-0.9l-9.2,0l-1.9-1.1l-2.9,0.7
	l0.1-0.9l1.7-8.5l2.2-2.8l0.5-3.3l-1.6-4.7l0.7-0.8l-1.1-4.3l-0.6-0.9L339.4,224.9 M339.5,221.8L339.5,221.8l-0.5,0.2l-0.7,2.4
	l-0.6,0.1l0-0.1l0-0.6l-0.1-0.4l-0.3-0.7l0-0.1l0.6-0.6l0.2-0.4L339.5,221.8L339.5,221.8"/>
<path id="path_33" class="st0" d="M350.6,105.6L350.6,105.6l0.1,0.1l0.5,0.5l0.4,0.3l0.2,0.6l0,0.1l0,0l-0.1,0.8l1.1,1.6l0,0.1
	l0,0.2l-0.5,1.6l-0.6,0.4l-0.6,0.6l0-0.2l-1.2-1.6l-0.2-0.8l0-2.6l-0.2,0l0.5-1.9l0.2,0.1L350.6,105.6"/>
<path id="path_34" class="st0" d="M315.1,105.6L315.1,105.6L315.1,105.6l-0.2,0.2l-0.3-0.2l0-0.1l0.1-0.1l0.2,0l0.3,0.1L315.1,105.6
	"/>
<path id="path_35" class="st0" d="M427,146.3L427,146.3l0.2,0.9l0.1,0.1l0.2,0l0.2,0.2l0.2,1.4l0,0.1l-1.2,0.3l-0.4,2.3l-0.3,2.7
	l0,0.4l-0.1,0.2l-5.4-0.8l-2.3-2.8l-0.1-0.5l0.1-0.1l1.2,0.9l4.6-0.8L427,146.3"/>
<path id="path_36" class="st0" d="M186.2,339.5l0.1,0.1l3.4,3.2l4.2,1.4l-1.4,0.8l-4.5-0.3l0,0l-0.4-1.2l-0.2-0.6L186.2,339.5
	 M172.6,266.6l0.1-0.1l0.8-1.4l3.4-0.3l1.6,1.6l1.2-1.9l2.2,0.5l0,0l0.1,0.1l2,2.3l2.2,1.7l6.6,3.2l0.5,1.1l-1.6,3.9l4.5,0.7
	l1.6-0.2l1.8-3.5l-0.1-1.1h0.2l1.4,0.4l0.5,3.4l-3.7,3.1l-2.9,4.4l-0.1,0.1l-0.1,0.1l-0.3,0.9l0,2l0.1,2.6l0,0.2l-0.2,2.7l0.5,2
	l1.6,1.1l2.6,3.6l-0.7,3.4l-4.3,2.7l-4.4,0.2l0.5,4.7l-2.7,0.8l-2.7-0.8l0.9,3.2l2.3,0l0.6,1.7l-2.6-0.3l1.3,1l-1.2,1.8l0.3,1.7
	l-2.9,2.7l-0.3,1.1l4.5,3.7l-2.3,4.2l0.2,1.2l-2,2.8l2.8,3l-0.1,0.1l-3.1-0.8l-3.6,0l-1.9-3.1l-1.5,0.1l-1.4-2l1-4l-0.6-0.6l0.4-2.1
	l-0.8-5.1l0.4-1.3l-1.2-0.1l-1.4-5.7l-1.2-3.1l0.1-3.9l0.6-1.1l-1.2-3.3l-0.3-2.1l1.2-5.7l-0.4-2.3l-1.3-2.4l-0.8-3.5l0-4.1l0.6-2.4
	l1.6-3l-0.8-6.1l2.2-1.5l0.4-2.6L172.6,266.6"/>
<path id="path_37" class="st0" d="M399.4,108.7l0.1,0.1l1.8,3.2l1.2,0.9l0.8,1.5l0,0.2l-0.3,0l-0.3,0.1l-0.1,0l-0.1-0.2l-0.8-1.5
	l-0.6,0.1l-1.2-0.6l-0.2,0l-0.1-0.1l-1-0.7l-0.7,0l-1.3-2.6l0-0.1l0.1,0l1.4-0.2L399.4,108.7L399.4,108.7"/>
<path id="path_38" class="st0" d="M441.2,331.1l2.4,0.4l-1.5,1l-2.1,0L441.2,331.1"/>
<path id="path_39" class="st0" d="M594.9,311l5.7,0l0.4,0.4l-3,4.2l-3.8,2.1l-1.2-1.4l0.6-2.7L594.9,311 M613.8,239.8l3.7,17.6
	l3.8,2.6l0.7,2.4l0.2,3.2l1.7,0.3l0,2.2l2.3,3.3l0.1,3.7l-0.7,2.2l-0.5,4.1l-3.8,6.4l-6.6,6.7l-3.6,4.1l-1.9,3.1l-1.8,1.7l-2.5,0.2
	l-5.1,2.2l-1.6-2l-3.7,2.3l-1.4-0.9l-1.9-0.2l-1.8-1.2l0.4-6.3l-1.6,0.7l0.8-2.2l-0.8-0.8l-1.1,1.7l-1.7,0.2l1.6-1.2l0.4-2.6
	l-4.2,2.2l0.1-1.7l-2.4-4.3l-2.6-1.2l-5.6,0l-4.9,1.5l-1.3-0.1l-3.3,1.5l-4.1,2.7l-3.5-0.4l-3.2,0.4l-4.3,2.5l-3.2,0l-1.8-3.6
	l0.6,0.3l2.2-4.8l-0.4-2.8l0.6-3.5l-0.9-6.4l0.3-2.4l1.1,1.7l-0.5-5l2.4-5.7l0.5,1.2l1.1-1.5l3.1-2l6.1-1.9l0.9-0.7l2.8-0.4l2.1-1.3
	l2.5-3.3l0.1-1.6l1.9-2.2l0.9,2.4l1.8-2.7l0.9-0.5l0.9-2.4l2-2.2l2.6-1.2l2.6,2.4l3,0.2l-0.4-1.1l2-3.1l1.8-1.9l4-0.6l-1.3-2.3
	l2.4,1.3l3.2,0.7l2.7,1.1l1.8-0.2l-2.5,2.4l-0.2,1.6l-1.3,2.6l6.8,5.7l3.3,0.2l1.9-3.3l2.3-8.1l-0.2-1.1l2.3-4L613.8,239.8"/>
<path id="path_40" class="st0" d="M343.5,90.9L343.5,90.9L343.5,90.9l-0.1,0.4l0,0.1l0.5,0.8l0.1,0.1l-0.1,0.1l-0.7,1l-0.4,0.4
	l-0.3,0.9l-0.3,0.3l-0.1,0l-2.2,0.6l-0.5,0.4l-1.5-0.3l-0.1,0l-0.4-0.1l-2.6-0.9l0-0.4l-3.2,0.5l-0.1,0V95l-0.2-0.2l-1.4-0.2h-0.1
	l0,0l0-0.2l0-0.1l0-0.2l0,0l0.1-0.3l0-0.2l-0.1-0.1l-0.1,0l0,0l3.3,0.3l1.7-0.7l1.6,0.6l1.3-3l0,0l0,0l1.6,0.2l0.4-0.7L343.5,90.9"
	/>
<path id="path_41" class="st0" d="M399.6,112.6l0.2,0l1.2,0.6l0.6-0.1l0.8,1.5l0.1,0.2l-0.4-0.1l-0.9-0.2l-1.5-1.5l0,0L399.6,112.6
	L399.6,112.6 M402,107.2l0.2,0l2.9,1.6l1.1-1.5l0.2,0.1l4,3.7l-1.6,0.2l-0.8,3.4l0.2,0.9l-1.5-2.4l-0.8-0.7l-2.5,1.9l-0.1,0l0-0.2
	l-0.8-1.5l-1.2-0.9l-1.8-3.2l-0.1-0.1l0.4-0.3l2.7,0.8l0.2-0.5L402,107.2L402,107.2"/>
<path id="path_42" class="st0" d="M376.6,216.3L376.6,216.3L376.6,216.3l-0.2,2.9l-0.2,0.5l-1.4,1.7l-0.7,0l0-0.4l-0.3-1.5l0-1.6
	l-0.4-0.7v-0.1l0-0.1l1.4,0.3l0.8-0.9L376.6,216.3"/>
<path id="path_43" class="st0" d="M317.7,84.4l0.2-0.1l1.3,0.3l1.1-0.4l2,1.5l0,0l0.2-0.1l0.1,0.1h-0.2l0.4,0l0,0l0.4,0.3l-0.2,1.1
	l0,0l0,0l-0.4,0.1l-0.2,0.7l0.2,0.6l0,0l-0.2,0l-1.6-1.4l-0.9,0.5l-3.5-2.7l0.8-0.4L317.7,84.4"/>
<path id="path_44" class="st0" d="M319.2,181.5l0.1,0.2l-0.1,0.2l0.5,2.9l-1.4,3.1l-0.7,0.3l-0.1,6.6l-0.9,0.1l-1,0.2l-0.4,0.1
	l-0.6-8.2l-1.2-2l0.2-1.2l0.1-0.3l0.1,0l2.2-1.1l0.8-1l0.1-0.1l0-0.2l0.1-0.7L319.2,181.5"/>
<path id="path_45" class="st0" d="M311.8,173.6l0.4,0.2l0,0.1l1.9,4.6l1,0.9l1.6,1.7l0.1,0.1l-0.1,0.1l-0.8,1l-2.2,1.1l-0.1,0
	l-0.5,0l-0.2,0.1l-0.1-0.1l-0.7-0.2l-0.5-0.1l-0.5-0.1l-5.2,0.4l-0.3,1.2l0.4,2.4l0,0.1l0,0.1l-2.3-1.1l-1.1,0.7l-2.4-1.8l-0.1-0.2
	l0-0.1l0.5-3.3l1.8-1.6l0.6-2l1.8,0.1l0.1-0.9l5.2-3.4L311.8,173.6"/>
<path id="path_46" class="st0" d="M496.6,156.2l-0.1-0.2l-1.7-3.9l0.1-0.8l-1.7-1.8l0.6-1.2l-1.1-1.7l1.7-1l2.1,2.2l4.1,0.5l1.5,0.8
	l-1.8,1.9l0,1.8l1.9-0.8l1.4,4l0.1,0.2l0,0.1l0.3,1.7l-0.4,1.2l0,0l-2.7-5l-1.8-0.3L496.6,156.2"/>
<path id="path_47" class="st0" d="M355.4,101.5l0.1,0.1l7.2,0.3l0.7-0.2l3.4,1l0,0.6l-1.3,1.9l-0.5,0.6l1.1,1l0.1,0.2l-1,0.1
	l-2.2,0.5l0,0.1l-0.2-0.1l0,0.9l-1.4,0.3l-4.6-0.1l-0.2,0l0,0l0-0.6l0.1-0.3l-1.1-1.1l-0.3-0.4l0.2,0l0-1.3l0.5-0.1L355.4,101.5
	L355.4,101.5"/>
<path id="path_48" class="st0" d="M347.5,105.6l-0.2-0.1l-5.4-5.3l0.8-0.7l5.4,0.5l0.1,0l0.1,0l0.2,0.9l0.4,2.2l-0.1,0.1h-0.1
	l-1,1.2l-0.3,0.1L347.5,105.6L347.5,105.6"/>
<path id="path_49" class="st0" d="M362.1,73.2L362.1,73.2l0.3,0.2l2.3,0.9l2.6,0.3l0.1,0.8l2.2,3.3l0.7,1.6l-0.2,2.3l0,0.1l-0.4,0
	l-2.4,1.5l-5.6-0.6l-6.4,0.5l0,0l-0.2-0.2l-0.8-1.5l1.1-1l-0.7-2.2l-0.3-0.8l0.1,0l3.5-0.9l0.2-1.2l1.4-0.9l-0.2-1l0-0.1l0,0
	l0.7-0.4l0.5,0.1L362.1,73.2"/>
<path id="path_50" class="st0" d="M127.3,165l-0.1,0.3l0,2.1l-0.5,2.2l-1.5,1.7l0,0.2l-0.5,0l-0.2,0l0.6-4.1l0.1-0.6l0-0.2l1.5-1.3
	L127.3,165"/>
<path id="path_51" class="st0" d="M190.8,260l-0.1,0v-0.4l-2.1-1.8l-1.9,0l-3.6,0.9l-1.1,6.3l0,0.1l0,0l-2.2-0.5l-1.2,1.9l-1.6-1.6
	l-3.4,0.3l-0.8,1.4l-0.1,0.1l-0.3,0.1l-1.1-0.1l-1.1-3.4l-1.3-2.4l-2.4-7.1l-0.1-0.3v0l-0.1-7.2l0.7-1.1l-0.5-1.2l0.6-2.9l-1.8-3.3
	l-0.3-0.5l0.2,0l1.5,0.4l4.5-2.9l2.5-0.5l0.7,4.9l1.7,1.8l1.3,0.1l7.1,3.3l0.6,2l-0.4,1.3l1,2.8l3.8,0l0.1,2.3L190.8,260"/>
<path id="path_52" class="st0" d="M206.4,211l2.6,0.2l-1.6,2.7l-3,0.7l-0.1-3.5L206.4,211 M183,197.7l0.2,0l2.3,3.2l-0.7,0.8
	l0.5,4.6l2.3,1.1l2.3-1.5l1.9,0l0.1,0l0.1,0l1.2-1.4l1.1,0.1l1.5,0.3l0.1,0l0.1,0l1.8,0l1.8,0.2l2.7-4.5l0.2-0.4l1,2.3l1.6,6l-3,3.9
	l-1,2.2l2.8-1.7l0.1,0.7l3.3,1.2l-0.2,1.5l2.9-4l5.5,1.6l2,1.7l-0.2,2.7l1.6-1.3l3.4,0.5l4.9,0.2l2,1.3l3.9,3.7l3.5,0.5l1.2,3.1
	l0.2,5l-1.3,2.8l-3.6,4.2l-0.2,1l-3.2,4.8l0.4,4.1l0,6l-1.1,2.3l0.2,1.6l-2.3,4.8l0,1.9l-1.4,0.8l-0.7,1.6l-2.3-0.5l0.1,0.6
	l-2.8,0.6l-4,2.2l-3.8,5.3l0.7,4.5l-1.9,3.2l-1.3,3.8l-2.5,3l-1.3,3.2l-0.8,0.8l-0.7-3.1l-0.7-1.1l-6.7-4.6l-1.7,0.2l-0.1-0.2
	l0.1-0.1l2.9-4.4l3.7-3.1l-0.5-3.4l-1.4-0.4h-0.2l0-0.4l0.4-3.4l-2.8-1.1l-0.3-1.2l-5.1-2.4l-0.8-4.6l-0.1-0.2l0.1,0l-1.3-7.2
	l-0.1-2.3l-3.8,0l-1-2.8l0.4-1.3l-0.6-2l-7.1-3.3L176,241l-1.7-1.8l-0.7-4.9l-2.5,0.5l-4.5,2.9l-1.5-0.4l-0.2,0l-0.2,0l-2,0.1
	l-0.2-2.9l-3.2,0.4l-1.4-1.5l-2.7-4.6l2.5-6.1l3.6-1.8l2.1-0.1l0-0.2l0-0.1l1.1-7.4l-1.4-3l0.8-2.6l-0.3-1.6l3.4,0l1.9-0.9l0.6,2.2
	l0.4-0.1l0.5,0.6l2.4,0.7l4.4-3.8l-1.3-0.9l0-3.4l2.6,0.9l2.8-1.7L183,197.7L183,197.7"/>
<path id="path_53" class="st0" d="M555.8,198.4l0.7,1.3l-0.5,0L555.8,198.4 M555.8,198.2l0,0.2l-0.4,1.3l-0.5,0.7l-1.1-1.3l0.2,0
	l1.4-0.9l0.3-0.2L555.8,198.2"/>
<path id="path_54" class="st0" d="M499.2,141.9l0,0.1v0.1l1.3,2.1l-4.9,0.4l-1.8-1.4l0,0l0-0.4l1.9-2.1l2.4,0.6L499.2,141.9"/>
<path id="path_55" class="st0" d="M364.5,254.2L364.5,254.2l0,0.1l1.6,3.8l2.4,2.7l1.3,2.5l2.2,0.7l0.5,0.9l0.1,0.1l-0.5,0l-2,1.2
	l-2.4,2.2l-0.6,1.6l-2,1.3l-0.7,2l-2.6,0.3l-2.6-1L357,276l-2.8-0.1l-0.4-3.8l-0.6-0.6l-0.1-0.1v-0.1l0.2-5.5l2.1-1.3l0.2-5.6
	l0.6-3.5l4.2-0.8l1.9,0.2L364.5,254.2"/>
<path id="path_56" class="st0" d="M360,183.6L360,183.6l0.2,0.3l1.6,2.4l0,1.2l0.9,1.6l0.2,0.1l0.1,0l2.1,2.7l2.5,2.3l2.1,3.6
	l0.2,0.2l-0.6-0.2l-3.4-0.3l-7.7,2.6l-6-1.6l-1,3l0,0.5l-0.1-0.1l-2.7-0.3l-1.5,0.4l-0.7,2.6l-0.1,0.3l-0.1-0.2l-3-5.7l-0.2-2
	l0.5-2.6l1.1-2l0.2-0.4l0.2,0l2.8-0.3l1.6-0.9l2.7-2.3l3.8-1.1l1.9-2.8L360,183.6"/>
<path id="path_57" class="st0" d="M195.5,97.3l1.2,0.7l-1.8,0.1l-0.1-0.8l2-2.2l0.1,1.3L195.5,97.3 M169.2,99.5l2.8-1.7l7.6-4.1
	l2.5-1.9l6-2.2l2.9,0.3l0.5,0.7l-2.3,3.4l-0.2,2.4l6.2,2.6l-3.1,1.1l-6.1,2.9l-1.4-0.4l0.7-1.8l3.5-1.9l0.6-1.2l-5.7,1.7l-0.1-0.1
	l-0.9-1.3l0.5-3.8l-1.8-0.2l-5.5,5l-6.9,0.6L169.2,99.5 M76.1,86.1l2.5,0.7l0.3,1.7l1.6,2.3l-2,0.4l-0.5-1.1L75.5,89l1-0.6
	L76.1,86.1 M209.6,84l-3.5,4l2.2-0.3l0.8,1.7l2.6-0.1l0.6,2l-1.4,1l1.7,1.1l-1.4,2.3l-1.6-1l0.5-1.7l-3.1,0.8l-2.1-0.3l-4.5,0.1
	l-0.2-0.9l5.7-6.7l2.8-1.9L209.6,84 M76.1,76.4l0.3-0.1l0.5-0.3l0.3-0.2L77,76l-0.5,0.3L76.1,76.4L76.1,76.4 M170.2,52.9l0.7-0.4
	l3.1,1.6l2.3,2l-3.7,0.1l-4.9,1.2l-0.8-1.1l-2.3,0.3l1.6-1l3.2-3.8L170.2,52.9 M189,46.4l0.3,1.2l-0.9,0.8l-2.7,0.2l0.3-1.2
	L189,46.4 M155.5,43.7l1.4,0.6l-1.7,1.8l-3.2-1l1.6-1.3L155.5,43.7 M136.7,90.9L136.7,90.9L136.7,90.9l-2.1-1.5l-0.8,0.6H82l0-0.1
	l-0.4-2.7L80,88.1l-1.2-1.7l-2.5-1l0-1.6l0.9-2.1l-1.3-2l-0.1-2.2l2.5-2.3l0.5-1.4v0l-1.6-1.6l-1.3-6.5L74,65.5l-1.3,0.9l-1.6-0.2
	l-0.6-2.5l-3.4,0.1l6.7-7.7l6.4-6.9l5.4-5.5l0.2,0l4.4,1.4l3.2-0.7l4.3-0.3l0.1,0.5l10.3-2.2l1.1,1.6l3.8,0.2l3.3-0.9l5,1.6l4.1,0.2
	l1.2,1.3l-2.1,0.4l1.3,0.9l2.3,0l3.8-0.6l2.7,1.7l-0.2,1.1l1.9-3l-1.1-0.5l6.5,0.4l1.7-0.1l7.5,0.3l2.2-1.2l2.4,0.6l-1.4,1.4
	l6.2-2.2l-1.2-0.7l2.2-1.1l-3.4-0.7l-0.2-1.1l1.2-1.5l3.2-1.7l2.6,1.3l0.2,1.8l-2.3,1.4l3.5,0.5l-1.1,2.5l3.2-2.1l1,1.2l-1.3,1.1
	l0.5,2.1l3.2-1.8l2.5-2.5l2-1.3l4.4,1.5l-2.6,4.3l-6.6,1.7l-2.7-0.5l0.8,0.8l-3.2,1.6l-3.7-0.8l0.9,0.8l3,0.5l-4.1,2.4l-4.2,0.9
	l-1.6-0.3l0.9,1.6l-3,0.4l-1.8,0.9l-5.1,4.1l-2.1,3.2l2.7,0.8l-0.6,3.5l2.5-0.1l13.2,5l-1.8,4.7l1.7,4.1l1.2,0.4l3.3-2.7l0.2-5.7
	l1.5-0.4l4.9-2.6l0.7-0.8l0.8-3l-1.1-3.1l2-1.2l1.3-5l1.5-1.5l4.6,0.9l2.1-0.7l2.3,2.7l3.2,0.4l-1,2.2l-1.2,0.2l-0.8,2.7l3.6,0.7
	l0.1,1l4.7-2.3l2.1-2.8l2.3,3.6l-1.1,0.5l2.9,6.2l-0.6,1.5l5.1,0.9l-5,2.1l-0.4,0.6l5.3-1.6l0,1l2,0.3l-0.1,3.2l-1.9,1.3l-3.9,0.9
	l-2.6,1.9l-4.2,0.9L196,87l-6.7,0l-2.1,0.7l-1.3,1.5l-4.9,2.6l-2.6-0.5l-1.7,4l-3.7,1.4l-3.4,2.4l-0.8,0.5l-4.1,2.3l-1,1l-3.7,0
	l-1.2,2l-4.8,1.5l-3.1,1.3l-0.7-0.7l1.9-1.9l1.9-6.3l-3.1-3.4l-5.3-3.7l-7.5,0.1L136.7,90.9L136.7,90.9 M133.2,37.6l3-0.8l1.8,1.3
	l2.9-1.3l0.7,2.5l1.7-0.3l0.5-2.4l2.9-0.2l0.9,1.1l-0.9,2.8l3.7,2.3l-0.4,0.8l-1.8-0.3l-1.9,2l-1.7,0.2l-4-1.3l-5.9,1.6l-5.5,0.4
	l-1-1.6l-3.1-0.2l-0.8-1l1.5-0.8l7.5-0.6l-5.9-0.3l-1-1.3l3.3-0.7l-4.5-0.2l3.7-2.4l5.5-1.1L133.2,37.6 M189.1,35.5l3.9,0.7l0.3,0.9
	l-2.5-0.1l-3.9-0.7l0.1-0.8L189.1,35.5 M174.7,40.8l3-0.2l0.8-1l-0.4-1.3l2.1-2.2l4.2-0.8l1.6,0.1l0.9,1.8l-2.1,1.7l4.7-0.9l0.8-0.7
	l3.2,0.2l1.8,1.1l-2.1,1.6l3.9-0.9l2,0.4l1.7,1.3l2.2,0.7l-1.4,1.2l1.2,0.4l-1.4,1.9L203,47l4.1,0.9l3,1.3l-0.5,1.5l-1.1-0.2
	l-2.4,2.5l-7.5-2.2l1.6,3.1l0.4-0.3l2.3,2.6l-1.1,1.9l-6.3-1.9l2.7,2.5v1.6l-4.3-1.2l-4-2.2l1.2-0.4l-2.4-2.2l-6.1,0.7l-1.8-0.8
	l1.8-1.2l5.4-0.5l0.9-1.7l2.8-1.1l1.7-2l-1-2.2l-4.1-0.6l1.3-0.9l-1.8-1.8l-6.4,0.6l-7.2-0.3l0.1-0.7l-3.8-0.1l-0.2-1.1l3.5,0.2
	l-3.4-0.9l3-3.4l2.3-1l5-0.4l-2.2,1.1l-2,2.7l1.1,1L174.7,40.8 M157.9,34.9l3.5,1l-1.3,0.8l0.4,1.8l-3.5,1.4l-5-2.6l1-0.7l1,0.6
	l0.9-1.4L157.9,34.9 M168.8,34.5l3.9,0.6l-4.3,2.2l-2.5,0.4l-1.5,1.1l-1.3-1.5l1-1.5l2.2-1L168.8,34.5 M127.9,34.6l2.6-0.3l2.9,1.5
	l-9.8,2.6l-1.5,1.2l-5.3,1l-0.2-1.1l-1.9-0.9l6.2-3.4l-0.2-1L127.9,34.6 M165.4,30.1l-2.1,2.6l-3.2,0.3l0.4-1.1l-2.2-0.1l1.4-1.6
	l1.5,0.9l0.9-1.3L165.4,30.1 M148.9,30.8l2.4,0.1l-0.7,1.8l-4,0.3l-8.4,1l0.2-0.7l4.9-0.7l-2.8,0.1l-1.1-0.6l-2.1,0.8l-3.6-0.4
	l1.3-0.9L140,30l3.6,1.6l3.3,0.3l2.2-2.5L148.9,30.8 M171.2,29.2l4.3,0.5l0.4,1.2l1.9,0.8l4.5,0.2l3.1-0.4l4.8,0.6l0.9,0.4l-1.9,1.2
	l-3.5,0.2l-1.1-0.7l-1.1,0.6l-4.4,0.2l-7.2-0.3l0.6-2l-3.9-1.2l-1.5-1L171.2,29.2 M140.4,28.4l-1.8,1.2l-3.7,0.6l1.1-0.7l-7.4,1.5
	l-0.6-0.6l7-1.8L140.4,28.4 M149.4,27l-0.2,0.7l-3.4,0.7l-0.1-1.1L149.4,27 M171.1,26.2l0.7,1l-3.1,0.3l-0.5-0.8l1.6-0.9L171.1,26.2
	 M162,24.8l3.9,1.1l0.1,1.4l-3.6-0.5l-3.7,0l2.1-0.9l-1.7-0.1L162,24.8 M181.8,21.7l3.5,1.2l3.2,2l-4.4,0.4l-2.7,1.5l-3.9,0
	l-2.7-1.3l2.5-0.5l-3.9-0.9l-0.3-0.7l5.8-2L181.8,21.7 M216.2,18.7l4.1,0.1l-1.7,0.4l5.8,0.2l2.1,0.4l-7.3,1.3l-2,0.7l-6.7,1.6
	l-9.9,1l2.8,0.5l-5.3,0.3l4.8,0.8l-6,1.2l-4.9,1.3l3.3,0.6l-1.8,0.9l-3.3-0.1l-6.2,0.4l-6.1-0.3l5.3-2.6l0.2-0.4l6.5-1.9l-1.5-2
	l3.1,0.1l2.8,1.1l-1.2-1.1l9.6-1l-1.9-0.4l-2.9,0.6l-6.5,0.4l-6.2-0.7l0.5-1.2l-2.5-0.1l5.8-0.7l3.7,0.1l1.3-0.6l6.6,0.9l-0.9-1.3
	l7.5,0.2l0.5-0.7L216.2,18.7"/>
<path id="path_58" class="st0" d="M329.4,93.4l0.3,0.2l0.1,0l0.1,0.1l0,0.2l-0.1,0.3l-0.1,0.2v0.2l0,0.1l0,0l0.1,0h0.1l1.4,0.2
	l0.2,0.2v0.1l-0.1,0.3l-1.8,0.7l-0.7,1.4l-1.1-1.3l-2.6,1.2l-0.1-0.1l0-0.1l-0.8-1.2l-0.9,0.7l2.6-3.4l0.2-0.1l0.2,0.1l1.2-0.1
	l0.7-0.2L329.4,93.4"/>
<path id="path_59" class="st0" d="M187.9,344.6h-0.3l-5.2-0.9l4.2,0.3l-2.2-1.6l-1-1.4l1.2-1.9l1.5,0.3l0.1,0l1.1,3.3l0.2,0.6
	L187.9,344.6 M172.5,331.2l0.2,2.1l-1.9-1.5l0.6-1.5L172.5,331.2 M169.5,317.2l-1.3-0.4l-0.2-2.9l1.8,2.3L169.5,317.2 M166.3,253.5
	l0.1,0.3l2.4,7.1l1.3,2.4l1.1,3.4l1.1,0.1l0.3-0.1l0.4,0.4l-0.4,2.6l-2.2,1.5l0.8,6.1l-1.6,3l-0.6,2.4l0,4.1l0.8,3.5l1.3,2.4
	l0.4,2.3l-1.2,5.7l0.3,2.1l1.2,3.3l-0.6,1.1l-0.1,3.9l1.2,3.1l1.4,5.7l1.2,0.1l-0.4,1.3l0.8,5.1l-0.4,2.1l0.6,0.6l-1,4l1.4,2
	l1.5-0.1l1.9,3.1l3.6,0l3.1,0.8l-1.1-0.2l-2.9,1.2l0.4,1.9l-4-0.7l2.1-1.6l-4,0.1l1.3-2.2l-1.5,0.7l-4.1-3.2l2.5,0.6l-3.4-7l0.3-0.1
	l-3.2-5l1.7-0.4l1.1,0.7l0.7-3.8l-1.3-0.6l0-2.7l-0.9-3.7l-0.7,0.6l-1.9-2.2l-0.1-2.2l-1.1-6.7l1-10.2l0.4-1.1l-1.5-5.8l0.5-0.5
	l-0.4-3.6l0.4-8.7l-0.5-3.8l0-5.3l-1.4-7.6l-0.1-0.1l1.1-0.6l0.1-0.3l0.3-1L166.3,253.5"/>
<path id="path_60" class="st0" d="M542.8,161.2l-0.5,3.2l-2.7,0.8l-0.8-0.4l0.5-3L542.8,161.2 M529.1,88l0.5,0.2l2.1,0.5l1.9-1.3
	l-0.6-0.8l0.1-2.8l0.6-0.9l-1.6-2.8l2.5-0.7l6.7,1l3.7,3l5.2,5.1l4.3,1l4.4,3.6l4.1-1l3,3.8l0,3.5l-2.6,0.2l1.9,4.9l-0.5,0.9
	l-0.1,0.1l-0.1-0.1l-1.6-0.5l-0.5,1.4l-1.9,0.8l0.8,1.3l-2.2-0.4l-3.7,3.8l0,0l-4.5,1.9l-0.9-0.4l0.8-2.4l-2.6-1.3l-2.3,2.8l0,0.8
	l-2.6,0.7l1.4,2.3l2,0.3l0.7,1.8l1.8,0.4l0.6-1.2l4.9,0.5l0.2,1.1l-2.7,0.9l-2.1,4.3l1.9,1l3,3.5l0.3,0.9l2.7,2.1l-2.4-0.4l3.2,2.6
	l-0.4,1.7l1.6,0.9l0.2,3.9l-1.3,0.9l-0.4,1.9l-1.4,0.9l-0.1,2l1.1,1.5l-1.2,0.6l-0.2,1.3l-2.3,2.2l-3.4,2.5l-2.1,0.3l-0.1,0.1
	l-0.3-0.1l0,0l-0.1,0.1l-0.2,0l-1.2-1l-0.2,0.1l0.8,1.7l-0.1-0.1l-0.1,0l0,0.1v0l0,0l-1.6,1l-1.4-0.2l-3.2,2.4l0.2,1.5l-1.8-3.5
	l-3.1,0.4l-0.2,0l-2.8-1.2l-0.3-1.9l-4.2-0.8l-1.6,1.4l-3.6,0.3l-0.1,0.1l-0.1-0.1l-0.7-0.2l0.7,3.2l-1.4-0.8l-0.1-0.1l0,0l-2.6-0.4
	L516,152l-2.5-0.4l-0.5-1.5l1.4-5.2l-0.7-2.4l-3-1.7l0,0.1l-0.1,0l-1.9-0.4l-1.4-2.6l-5.2,2l-0.9,1.3l-1.7,0.8h-0.2l0-0.1l-1-0.7
	l-2.4-0.6l-1.9,2.1l0,0.4l-0.1-0.1l-0.4-1.6l-0.5-0.2l-0.9,0.5l0,0.1l-0.2,0l-1.5,0.2l-4.1-1.1l-2.7-1.6l-0.4-0.8l-6-2.8l-0.6,0.6
	l-0.1-0.2l-0.1-0.2l-2.8-1.8l-0.5,0l-1.5-3.8v0l0-0.1l-0.2-0.9l-0.1-0.1l-0.1-0.4l-0.1-0.1l0,0l-0.9-1l-3-4.5l0,0l0,0l-0.1,0l-0.6,0
	l-0.3-0.1l-0.9-0.3l-0.2-0.1l-0.1,0l-1-0.3l-1.2-1.9l-2.8-1.1l-0.1,0l0,0l-0.4-0.3l0.3-0.2l0.6,0l0.1,0l0,0l-0.9-2.8l-2.2-0.5
	l-0.8-1.9l0-0.1l0.2,0l1.6-2.5l2.9,0.3l1.4-1.6l4.9-2.7l-0.1-0.1l0,0l0.2-2.6l-2.6-4.2l2.8-0.8l1.7,0.5l-0.7-1.3l0.1-3.1l4.8-0.7
	l-0.9-2.3l2.2-2.2l0.2,0l0.2,0l0.1,0l0-0.1l0.4-0.1l0.1,0l0.1,0.1l0.8,1.3l6.6,3.7l1.4,2.2l-0.1,1.4l3.3,1.2l4.2,0.9l2,0.9l5.5,3.6
	l4.6,0.5l12.1,1.9l2.3-1.3l5-0.4l1.5-0.8l1.6-2.8l0.4-2.4l2.1,0.4l1.1-1.5l2.1-0.2l2-2.7l2.5-0.4l2.1,0.2l-5.6-3.2l-3.2,0.7
	l-1.2-4.8V88"/>
<path id="path_61" class="st0" d="M305,197.8l0.3,0l-0.1,0.1L305,197.8L305,197.8 M294.9,185.5L294.9,185.5l3.7-1.4l0,1.1l1.4-0.4
	l0.1,0l0.1,0.2l2.4,1.8l1.1-0.7l2.3,1.1l0-0.1l0,0.1l0.2,3.3l-1.4,3.8l0.9,3l-0.5,0.5l0,0l-1.8-0.2l-3.6,0.3l-4,1.8l-0.3,0.1
	l-0.7-4.6l-0.8-0.2l-0.4-3l0,0l0.1-0.1l1-2.9l0.4-0.7L294.9,185.5L294.9,185.5"/>
<path id="path_62" class="st0" d="M344.7,191.8l-0.1,0.2l-0.2,0.4l-1.1,2l-0.5,2.6l0.2,2l3,5.7l0.1,0.2v0l-0.1,1.3l-3.3-1.2
	l-2.2,0.1H340L340,205l-0.3-0.1l-3.3-0.1l-0.5,0.2l0,0.2h-0.5H333l-0.2-0.1l-0.1-0.2l0-0.6l0.3-1.3l-1.4-2.1l-1.6-2l0,0l0.9-2.9
	l2.7-2.4l1.7,0.9l2-2.7l0.8-2.5l1.7-2.6l1-3l1.8-2.1l-0.9-2.2l-0.2-1.1l0.4,0l1.3,1.4l1.8,6.1l-3,0.1l-0.5,1L344.7,191.8"/>
<path id="path_63" class="st0" d="M369.3,197.7l0.6,0.2l0.1,0.2l3.2,1.4l2,0.4l2,2l0,0.1l0.1,0.1l-0.3,2.5l0.9,0.5l-0.5,1.4
	l-2.2,2.5l-0.7,5l0,0.1l-0.1,0.1l-0.9,1.9l-0.6,0.6l0.1,0.6l0.2,0.1v0.1l0.4,0.7l0,1.6l0.3,1.5l0,0.4v0.1l-0.1,1.2l1.6,4.8l1.2,2.9
	l0.1,0.2l-0.4,0.1l-4.7,2.6l0.5,1.4l-0.5,4.6l1.3,1.6l1.6-0.5l-0.1,3l-4.5-2.7l-1-1.7l-0.9,1l-5-1.5l-0.7-1.2l-0.1,0l-0.1,0
	l-3.4,0.8l0-2l-1-2.3l0-5.3l-2.5-0.1l0-0.8l-2,0.2l-1.1,2.4l-3.3,0.2l-2.4-5.4l-7.1-0.1l-0.1-0.1l-1.5,0.1l-0.2-0.2l-0.1-0.1
	l0.6-0.1l0.7-2.4l0.5-0.2l0,0l0-0.1l3,0.6l0.9-0.4l2.8-6.2l3.2-4.7l1.9-8.8l0-0.4l0-0.5l1-3l6,1.6l7.7-2.6L369.3,197.7"/>
<path id="path_64" class="st0" d="M351.2,201.8l0.1,0.1l0,0.4l-1.9,8.8l-3.2,4.7l-2.8,6.2l-0.9,0.4l-3-0.6l0,0.1l0,0l-1.4,0
	l-0.2,0.4l-0.6,0.6l0-0.1l-0.4-0.6l-0.1-0.5l-0.9-1.1l-0.5-0.5l1.7-1.4l-0.7-1.9l2.5-1.6l2.5,1.4l0.4-0.3l-0.3-5.1l-0.4-1.1l0.7-2.8
	l-2-1.9l0-0.2h0.5l2.2-0.1l3.3,1.2l0.1-1.3v0l0.1-0.3l0.7-2.6l1.5-0.4L351.2,201.8"/>
<path id="path_65" class="st0" d="M148.1,189.2L148.1,189.2l0.9,1.3l2.9-3.9l1.3-2.8l1.6,0.1l0.4-1.1l1.9-0.1l2.6-1.9l1.9-0.7
	l-0.1,1l-0.1,0.1l-1.5,0.6l-2,2.7l0.7,5.4l-0.2,2l4.9,1.3l1.3,2l4.2,0.2l-1,3.3l1,3.3l-0.5,1.6l1.4,3.4l0,0.2l-0.4,0.1l-0.6-2.2
	l-1.9,0.9l-3.4,0l0.3,1.6l-0.8,2.6l1.4,3l-1.1,7.4l0,0.1l-0.1-0.2l-1.1-0.7l0.9-2.9l-3.2-1.2l-1.8,0.5l-6-5.9l-0.1,0.2l-0.4-0.2
	l-2.9-0.7l-4.3-3l-0.1-0.2l1.3-2.4l2.7-3.4l-0.5-1.7l0-3.4l-0.9-2.8l-0.2-0.2l1.5-1.7L148.1,189.2"/>
<path id="path_66" class="st0" d="M130.8,183.3L130.8,183.3l2.3,0l1.5,0.8l0.6-0.4l0,0.1l0.3,1l0.6,1l1,1l0.1,0.1l-0.8,0.8l0.4,0.7
	l-0.4,2.2l-0.1-0.3l-4.1-4.8l-1.7-0.7L130.8,183.3"/>
<path id="path_67" class="st0" d="M142.4,153.4l6.2,2l3.3,2.2l2.4,0.9l2.7,2.5l-6.8,0.5l0.7-1.9l-2.5-1l-3.8-2.5l-2.7-0.3l0.4-1
	l-6.1,1.4l1.3-1.6L142.4,153.4"/>
<path id="path_68" class="st0" d="M379.6,123.8l0.2,0.2l-0.6,0.1l-0.5-0.3l-1.4-0.1l0.1,0l0.3-0.6l1,0.1L379.6,123.8"/>
<path id="path_69" class="st0" d="M377,123.7l0.1,0l1.4,0.1l0.5,0.3l0.6-0.1l0,0l-2.6,1l-0.4-0.1L377,123.7"/>
<path id="path_70" class="st0" d="M339.2,85.6L339.2,85.6l0.2,0l0.7,0l2.8,1.8l0.4-0.7l3,1.2l0.7,0.9l0,0.1l0,0l-1.3,1.1l-0.4,0.3
	l-1.5,0.6l0,0.2l-0.1-0.1l-3.7-0.9l-0.4,0.7l-1.6-0.2l0,0l-0.1-0.1l-1.9-1.2l-1.1-2l0.5-0.5L339.2,85.6"/>
<path id="path_71" class="st0" d="M337.3,78.1l0.3,0.2l0,0.1l0,0.1l-0.1,0l-0.2,0l-0.4-0.6L337.3,78.1 M327.5,76.4l0-0.3l0.4,0
	l0.5,0.1l1,0l0,0l5.2,0.8l0.8,0.1l2.3,1.6l0,0l1.2,3.9l-0.2,0.6l0.6,2.3l0,0l0,0l-4.1,1.1l-0.5,0.5l1.1,2l1.9,1.2l0.1,0.1l0,0
	l-1.3,3l-1.6-0.6l-1.7,0.7l-3.3-0.3l0,0l-0.3-0.2l-1.2-0.2l-0.7,0.2l-1.2,0.1l-0.2-0.1l-0.1,0l1-3.1l-3.3-1.4l-0.1,0l0-0.1l-0.5-1.2
	l0-0.1l0-0.1l0,0l0.2-1.1l-0.4-0.3l0,0l0.1-0.4l0.2-1.4l-0.5-0.6l2.2-3.6l-0.1-0.1l2-0.3L327.5,76.4"/>
<path id="path_72" class="st0" d="M402.9,182l0.2,0.2l-0.2,0.3l-0.2,0.4l-0.2,0.5l-0.2,0l-2,0.1l-0.2-0.1l0.9-3.3l0.2-0.4l0.1-0.1
	l0.6,0.3l0.2-0.1l0.7-0.7l0,0.1l0.6,1.2l-0.3,0.5L402.9,182"/>
<path id="path_73" class="st0" d="M334.3,74.1l-1.1,2.3l-1.1-2.3l1.5-0.8L334.3,74.1 M327.4,76.1l0-0.2l2.7-4.6l1,1.1l-1.8,3.7
	l0.1,0.2l-1,0l-0.5-0.1L327.4,76.1"/>
<path id="path_74" class="st0" d="M161.8,166.1l-0.1-0.1l-0.3-1.4l0.7-2.7l0.1,0l3.7,0.2l0.8,1.1l2.3,1.5l-0.8,1L161.8,166.1"/>
<path id="path_75" class="st0" d="M327.9,119.4l0.9-0.1l-0.6,2.8l0.2,1.8l-1.6,3.1l4.1,8.3l0.1,0.6l-0.2,0.1l0.3,10.2l2.6,3.7
	l2.5,2.1l0.2,0.4l-1.1,0.7l-8.1,5.8l-1,1l-5.3,3.2l-0.5,0.1l-0.7,0.1l-1.5-1.7l-16-12.4l-0.6-0.5l-0.5-0.4l-2-1.5l-0.4-0.3l-4.6-3.3
	l-0.4-0.3l0-0.5l0-0.4l0-0.6l0-2l4.5-2.8l2.5-0.6l2.7-2.1l1.1-2l4.4-0.9l-1.9-7.5l0.4,0l6-3.4l5.6-1.1L327.9,119.4"/>
<path id="path_76" class="st0" d="M144.4,207.3l-0.1-0.4l4.3,3l2.9,0.7l0.4,0.2l-0.1,0.1l0.2,2l-0.7,1.4l-2.3,2.5l-2.6,1.2l-1.5,3.7
	l-3.8-0.9l0.2-2l0,0l1.1-2.2l-1.1,0.6l-1.2-0.9l0-3.4l1.7-3.4l-0.1-0.9L144.4,207.3"/>
<path id="path_77" class="st0" d="M381,133.3L381,133.3L381,133.3l0.2,0.2l0.2,0.5l0.5,1.4l0.3,0.6l0.7,1.8l-0.1,0.1l-1.9,3.4
	l-1.1-1.3l-1.8-3.4l0.9,2.8l1.7,2.2l1.1,3.1l2.9,5.4l1.3,1.3l0,2.4l2.6,2.3l0,0H377h-2.3h-10.3h-0.8l0-0.6l-0.9-17.2l-0.7-2.3
	l0.6-3.8l0.2,0.3l4.1,0.4l4.5,1.1l3.2-1.7l3,1.2L381,133.3"/>
<path id="path_78" class="st0" d="M388.6,175.4l-0.1-0.7l0.8-6.1l0.9-0.2l2.3-2.2l0.7,1.4l1.5,4.7l2.4,1.6l5.4,5.1l0.1,0.3l-0.7,0.7
	l-0.2,0.1l-0.6-0.3l-0.1,0.1l-0.2-0.3l-3.4-3.9l-2.2-0.9l-2.6,0.2l-1.3-1.1l-0.6,1.7L388.6,175.4L388.6,175.4"/>
<path id="path_79" class="st0" d="M294.8,107.1l-0.1,0l-0.5-3l0.6-0.4l5.9-0.8l7.7,0.6l0.1,0l2.9,1.4l3.2,0.3l0.2,0.2l0,0.1l0.3,0.2
	l0.2-0.1l0.1,0l0.3,0.1l1,0.2l0.4,0.1l1.2-0.2l0.1,0.2l-0.4,1.5l-4.4,2.3l-1.5,2.3l0.5,2.6l-2.2,3.1l-3.7,2.1l-3.1,0l-1.9,1.2
	l-3.6-2.4l-0.5,0.1l0.1-6.2l1.1-0.6l-0.1-4.9L294.8,107.1"/>
<path id="path_80" class="st0" d="M354.8,69.3L354.8,69.3l-1.9-3l3.3-0.7l4.5,0.1l0,0l-0.7,1.7l0.5,2.1l-0.2,0.6l0,0.1l0,0l-2.8-0.8
	l-1.3-0.4L354.8,69.3"/>
<path id="path_81" class="st0" d="M388.6,175.4L388.6,175.4l2.2,0.3l0.6-1.7l1.3,1.1l2.6-0.2l2.2,0.9l3.4,3.9l0.2,0.3l-0.2,0.4
	l-0.9,3.3l0.2,0.1l2-0.1l0.2,0l0,0.1l0.8,2.9l0.6,1l8.9,3.4h0.7l-0.5,0.6l-5.8,7l-3.8,0.6l-2.5,1.5l-0.1,0.1h-0.3l-2.1-0.7l-2.7,2
	l-3-0.5l-2-1.5l-2.5-0.6l-1.5-2.3l0-0.1l0,0l-4.7-5.7l-0.2-0.3l2.2-3.6v-0.1v-0.1l0.9-3.4l0.7-0.2l2.9-7.5L388.6,175.4"/>
<path id="path_82" class="st0" d="M345.1,44.9L345.1,44.9l1.5-0.5l2.5,1.2l3.1,0.2l4.2-3.1l2.2,0.8l-0.1,1.3l0.1,0.1l-0.1,0
	l-0.3,1.4l1.5,3.2l1.7,1.8l-0.1,2.1l1.3,2.9l2.1,1.1l0,1.9l-4.7,4l-0.1,0l-7.3,1.2l-0.7,0.4l-3.2-2.8l-0.3-4.7l1.3-0.2l4.3-4
	l-0.2-0.9l-1.8-0.6l-0.1,0l-1-1.2l0.4-0.9l-1.5-2.8l-4.2-1.8L345.1,44.9"/>
<path id="path_83" class="st0" d="M203.1,336.3l1.3,1.4l-1.6,1l-0.6-0.9L203.1,336.3"/>
<path id="path_84" class="st0" d="M316.3,85.1l0.1-0.1l3.5,2.7l0.9-0.5l1.6,1.4l0.2,0l0.1,0.1l0.5,0.1l0.1-0.1l0.3,0l0.1,0.1l0.1,0
	l3.3,1.4l-1,3.1l0.1,0l-0.2,0.1l-2.6,3.4l0.9-0.7l0.8,1.2l0,0.1l-0.1,0.1l0.2,3.9l0.8,0.4l0.3,0.9l-0.1,0l0,0l0,0l-0.1,0.1l-0.2,0.1
	l-1.3,1.2l-1.7,0l-2.9-0.8l-2.1,1.6l0.3,0.9l0,0.1l-1.2,0.2l-0.4-0.1l-1-0.2l-0.3-0.1l0-0.1l0-0.2l-0.3-0.1l-0.2,0l-0.1,0.1
	l-0.2-0.2l-3.2-0.3l-2.9-1.4l0.3-0.1l0.8-3l-0.3-4.1l-1.1-2.3l-3.9-1.3l-1.2-1.7l6.2-0.2l-0.8-2.5l3.2,0.9l0.7-1l2.5-1.4l0.7-1.7
	L316.3,85.1 M330.1,105l-0.3,3.3l-1.4-1.9L330.1,105"/>
<path id="path_85" class="st0" d="M197,197.3l0.2-0.1l2.8,0.3l2.3,2.9l0,0.1l-2.7,4.5l-1.8-0.2l-1.8,0l-0.1,0l0,0l0.4-6.6L197,197.3
	"/>
<path id="path_86" class="st0" d="M340,205l0.1,0.2l0,0.2l2,1.9l-0.7,2.8l0.4,1.1l0.3,5.1l-0.4,0.3l-2.5-1.4l-2.5,1.6l0.7,1.9
	l-1.7,1.4l-0.2-0.2l-2.9-3.5l-1.5-4.2l1.8-1.8l-0.5-2.3l0-0.1l3.7,0.1l0-2.3l0-0.6l0-0.2l0.5-0.2l3.3,0.1L340,205"/>
<path id="path_87" class="st0" d="M381.3,133.3l-0.2,0.2l-0.1-0.2l0-0.1l0.4-0.4l0.2-0.3l-0.2,0.6L381.3,133.3"/>
<path id="path_88" class="st0" d="M298.8,75.7L298.8,75.7l2-0.3l-0.1,2.7l-0.2-0.1l-3-0.3l-0.3-0.7L298.8,75.7 M306.3,67.8l-1.9,2.1
	l4-0.1l-1.7,2.6l4.7,5.6l-0.3,0.9l3.6,2.2l-0.7,2.1l0.2,1.6l-1.3,0.6l-3.9,0L305,87l-3.5,0.1l4.3-2.8l-3.6-1.2l1.9-0.9l0.2-1.5
	l1.9-1.4l-0.6-3.4l-2.9-0.1l0.5-2.5l-1.3,1.6l0.8-5.8l-0.4-0.4L306.3,67.8"/>
<path id="path_89" class="st0" d="M401.9,107.2L401.9,107.2l0,0.1l0.8,1.4l-0.2,0.5l-2.7-0.8l-0.4,0.3l0,0l-1.4,0.2l-1.4,0.2l-0.1,0
	l0,0l-3.3-0.7l-0.6-0.2l0.3-0.5l-0.9-2.5l-0.6-0.2l-2-1.2l-0.5-0.3l1.2-0.3l1.9,0.8l8.3,1.8L401.9,107.2"/>
<path id="path_90" class="st0" d="M311.2,183l0.5,0.1l0.1,0.1l1.1,4.1l0.2,6.5l1.3,1.6l-0.2,0.1l-0.3,0.6l-6.3,2.6l-2.3-0.8l-0.1,0
	l0.1-0.1l0.1,0l0.5-0.5l-0.9-3l1.4-3.8l-0.2-3.3l0-0.1l0-0.1l-0.4-2.4l0.3-1.2L311.2,183"/>
<path id="path_91" class="st0" d="M287.6,179.9l0.1,0L287.6,179.9l0.4,1l5.1,0.2l1.8,4.2l0,0.2l-0.1,0.1l0.5,2.6l-0.4,0.7l-1,2.9
	l-0.1,0.1l-0.1-0.1l-1.8-0.3l-0.3-1.6l-1.5-0.4l-0.1,0l-0.2,0l-0.8-2.2l-2.4-1.5l-1.1,0.2l-1.9,2.1l0-0.1l-1.8-2.6l-0.5-0.3
	l-1.3-1.4l0-0.3l0.6-1.1l1.4-0.6l0.9-2.3l0-0.2l0.7,0l1.8,0.7L287.6,179.9"/>
<path id="path_92" class="st0" d="M277,177.4l-0.1-0.3l5.1,0.1l0.6,0.5l-4.1,0l-2,0.6l0-0.2l0.9-0.5L277,177.4"/>
<path id="path_93" class="st0" d="M282.9,179.3l0,0.2l-0.9,2.3l-1.4,0.6l-0.6,1.1l-0.1-0.2l-0.7-1.2l-1.5-1l-0.6-0.7l-0.6-0.4
	l1.8-0.2l1.4-0.6l2.4,0H282.9"/>
<path id="path_94" class="st0" d="M335.8,205.1l0,0.6l0,2.3l-3.7-0.1l0-0.1l-0.2-0.9l0.2-0.3l0.4-1.3l0-0.6l0.1,0.2l0.2,0.1h2.4
	H335.8"/>
<path id="path_95" class="st0" d="M362.9,107.6l0.2,0l0,1.1l0.1,0.6l-0.6,0.7l-0.1-0.1l-4.4,0l1.1,1.2l-1.9,0.4l-1.5-1l0.9,3.8
	l-0.6,0.1l2.4,2.5l-1.1-0.2l-0.2,2.3l-0.9,1.1l-2.8-3.1l0.4-1.2l-2.9-3.2l-0.2-0.2l0.6-0.6l0.6-0.4l0.5-1.6l0-0.2l0.3,0l1.3-0.2
	l2-0.9h0.1l0.2,0l4.6,0.1l1.4-0.3l0-0.9L362.9,107.6"/>
<path id="path_96" class="st0" d="M227.5,43l-1.9,1.4l-0.4-2.2L227.5,43 M271,17.9l4.9,0.5l-8.1,0.2l8,0l4.8,0.5l-2.1,0.8l-8,0.2
	l6.1,0.3l2,0.4l3-0.5l0.4,0.6l-2.7,1.3l4.2-1.1l3.2,0.2l3.2-0.7l5.1,0.4l-3.8,1l-3.7,1.3l-4.6,0.2l1.2,1.5l-3.1,1.2l-1.4,1.4l3,1.7
	l-1.1,1.2l0.7,1.9l-2.7,0.3l2.3,1.6l-4.2,0.1l2.7,0.7l-0.3,0.7l-2.7,0.4l-2.9-1l0.3,0.7l2.7,1l-0.2,1l-1.8,0.2l-3-1.2l-2.3,0.4
	l2.1,0.6l5.1,2.4l0,1.3l-2.8,0.3l-1.4-1.4l-2-0.2l-4.4,0.6l-1.2,1.1l3.1,0.5l7.5,0.2l-3.4,1.1l-2.3,1.2l-5.6,1.4l-2.9,0.4l-2.5-0.3
	l-0.1,0.6l-5.6,3.6l-4,1l-0.1-1.2l-2.2,1.5l-2.6,0.2l-1.7,1.4l1.1,0.8l-1.5,2.1l-3.4,2.1l-0.3,2l-2.3,3.6l-1.5,0.2l-2.7-1.2
	l-0.2-1.2l-4,0.6l-2.3-3.6l1.1-5l-0.4-1.1l-3-1.7l3.5-1.9l-4.2,1.5l2.2-1.5l0.6-3.7l3.6-1.3l1.6-1.3l-6-1.7l4.2,0.3l1.1-1.3
	l-2.7-1.6l-1.8,1l-1.6-0.1l2-3.1l-1,0l0.2-3.1l-2.8-1.6l0.6-0.3l-6.8-1.6l-1,0.3l-6.6,0.3l0.5-1l-3.8-0.9l7.3-0.5l0.5-0.4l-4.6,0.2
	l-4.2-1.3l6.4-1.2l5.5-0.7l2.5-1.4l-2.5-0.8l8.3-1.1l0.7-0.8l4.7,0.1l7.9-1.1l1.2,0.4l1.7-0.6l7.1,1l1.4-0.7l4.8-0.8l-5.3-0.1
	l11-0.9L271,17.9"/>
<path id="path_97" class="st0" d="M124.8,166.6h0.4l-0.1,0.6l-0.6,4.1l0.2,0l0.5,0l0.1,0l0.5,0.3l0.2-0.2l-0.1-0.2l0.7,0.6l-2.2,2.6
	l-0.4,0.5l-0.1,0.1l0,0l-1.5,1.3l-0.1,0.4l-0.8-0.4l-0.3-0.1l-1.1,0l-1.3-0.7l-0.8-0.8l1.5-3.8h2.5l-1-2.2l0.5-1.6L124.8,166.6"/>
<path id="path_98" class="st0" d="M190.5,196.8L190.5,196.8l-1.6,1.8l0.6,3.6l0.6,0l1.6,3.4l0.1,0.1l-0.1,0l-1.9,0l-2.3,1.5
	l-2.3-1.1l-0.5-4.6l0.7-0.8l-2.3-3.2l-0.2,0l-0.4-0.6l0.6-3.3l0.9-0.8l-0.8-1.1l1.9-1.8l-0.3-0.7l0.1,0l2.4,2l0.6,1.7l-0.3,1.3
	l1.4-0.7l1.3,1.3L190.5,196.8"/>
<path id="path_99" class="st0" d="M548.6,154.9L548.6,154.9l-0.7,0.3l0.2-0.1l0-0.1l0.1-0.1l0,0L548.6,154.9"/>
<path id="path_100" class="st0" d="M126.6,171.8l0.2,0.1l2.6-0.2l2.4-0.6l5.1,2.4l0.1,0.1l-0.8,0l-7,3l-0.1,1.1l-1.4,0.8l0-0.3
	l-0.3-0.7l-0.2-0.1l-0.4,0l-0.1-0.1l0.1-1.2l-0.7-0.2l-2.4-1l-0.1,0l0.1-0.1l0.4-0.5L126.6,171.8"/>
<path id="path_101" class="st0" d="M347.7,105.9l-0.4-0.2l-2.2-1.2l1,0.4l1.3,0.6l0.2,0.1l0,0.1l0.1,0.1L347.7,105.9 M343.1,96
	l0.1,0l2.5,1.7l0.3,0l1.8-0.4h0v0.1l0.3,1.2l0.5,0.3l-0.5,0.9l0,0.1l-0.1,0l-5.4-0.5l-0.8,0.7l3.7,4.4l-1.3-1.1l-1-0.4l-5.8-4.7
	l0.1-0.1l3.9-0.8l0-0.9l1.5-0.8L343.1,96"/>
<path id="path_102" class="st0" d="M161.7,166.1l-0.2-0.2l-4.1,0l-1.3-0.8l4.3-0.3l-0.4-2.2l-1.5-0.7l3.3,0.1l0.1,0l-0.7,2.7
	L161.7,166.1"/>
<path id="path_103" class="st0" d="M353.3,91.4L353.3,91.4l0.2,0l0.3,0.4l0.3,0.1l0.7,0.6l0,0l0,0.1l-1.5,1l-1.5,3l-1.4,0.3
	l-0.1,0.1l-0.1,0l-1.4,0.1l-0.6,0.2l-0.4,0.1h0h0l-1.8,0.4l-0.3,0l-2.5-1.7l-0.1,0l0-0.1l-0.4-0.5l-0.1-0.3l-0.4,0l0.3-0.3l0.3-0.9
	l0.4-0.4l0.7-1l0.1-0.1l0.1,0l3,0.5l3.4-1.8L353.3,91.4"/>
<path id="path_104" class="st0" d="M565.6,233.5l1.5,1.8l-1.4,0.2l-2.2-1.9L565.6,233.5 M576,232.5L576,232.5l0.5,0.4l-0.1,0.2
	l-0.1,0.8l-0.2,0.1l-1.3,1.4l-1.5-0.2l0.7-1.7l0.1-0.1l0.5,0.2l0.3-0.3l0.1-0.3l0.3-0.1l0.2-0.1l0.1-0.1L576,232.5 M571.6,231.6
	l-6.3,0.2l1.8-1.1l1.6,0.8l3.5-0.5L571.6,231.6 M539.4,225.2l2.5,1.8l4,0.4l4.3,0.1l0.9,1.8l2.2-0.1l0.9,2.8l-2.7-1.2l-5.6-0.3
	l-1.5-0.8l-9.1-2.6l1.4-2.1L539.4,225.2 M587.2,217.5l2.3,1.6l-0.1,0.8l-2-1.3l-4.2-0.3l2.5-0.9L587.2,217.5 M536.9,214.5l0.6,2
	l-0.8,0.9l-0.4-1.6l-1.4-0.3l1-1.3L536.9,214.5 M610,232.8L610,232.8l-1.7-2.7l-2.5,0.4l0.6-1.5l-0.9-1.6l-0.9-3.6l-8.5-4.2
	l-0.5-0.7l-1.8,1.1l-1-3.1l2.9-0.2l-2.9-0.9l-2.1-3.5l2.3-1.2l3.6,1.6l0.1,2.9l2.5,2.9l2.2-2.7l3-1.9l6.2,2.8l0.5,0l-0.7,9.8l0,0.6
	L610,232.8 M577,208l-1,1.3l-8.2-0.1l-0.7,3.4l1.9,1.2l3.7-1.4l1.1,0.5l-3.3,1.8l0.7,4.6l1.2,2l-2.1,1.1l-2-3.2l0.2-2.2l-3.1,4.3
	l0.1-1l-1.4-1.4l1.4-6.3l0.6-0.4l0.6-3.6l2.2-1.6l4.7,1l3.3-1.6L577,208 M583,208.3l1-1.4l1.5,2.9l-2.9-0.7L583,208.3 M561.4,200.3
	l0-0.1l0.2,0l0.3,0l0.1,0.2l0,0.1l-0.4,0.1L561.4,200.3 M544,205.7l0.5-0.3l0.9,1.9l1.2,0.9l3.9-1.7l2.6,0.7l2.3-1.6l1.7-5.6l4,0.1
	l0,0l-0.1,1.2l2.6,5.8l-2.3,2.4l0,2.2l-2.6,2.8l0.5,1.4l-0.7,2l-3.5,2.4l-0.3-1.5l-5.8-1.5l-1.6,0.4l-1.5-0.9l-0.5-3.5l-2.2-4.4
	L544,205.7 M516.4,197.6l2,0l5.4,5.5l4.1,3.4l2.7,2.8l1.3,0.5l-0.5,2.1l1.3,1.1l1.7,3.4l0.9-0.2l1.1,5.4l-0.3,2.8l-4.1-1.5l-3-2.7
	l-3.1-5l-1.1-2.7l-3.2-5.7l-2.2-1.9l-5.7-7.4l0.1-0.8L516.4,197.6"/>
<path id="path_105" class="st0" d="M470.8,131.8l-0.2-0.2l0.8,1.8l-0.1-0.1l1.1,0.5l0.5,0.3l0.5,0l0.3,0.2h0l2.5,1.6l0.1,0.2l-0.1,0
	l-0.9,1.1l-0.3,2.1l0.9,0.6l6.5,3.1l1.9-0.1l2.2,1.4l4.2,1l1.9-1.2l-0.4-2.3l-0.1-0.1l0-0.1l0.9-0.5l0.5,0.2l0.4,1.6l0.1,0.1l0,0
	l1.8,1.4l4.9-0.4l-1.3-2.1V142h0.2l1.7-0.8l0.9-1.3l5.2-2l1.4,2.6l1.9,0.4l0.1,0l0,0.2l-0.6,1.3l-3.1,2.6l-0.5,3.4l0.4,0.4l-0.9,2.8
	l-1.2-0.2l0.1,4.4l-0.9,0.5l-0.1,0.1l-0.1-0.2l-1.4-4l-1.9,0.8l0-1.8l1.8-1.9l-1.5-0.8l-4.1-0.5l-2.1-2.2l-1.7,1l1.1,1.7l-0.6,1.2
	l1.7,1.8l-0.1,0.8l1.7,3.9l0,0.4l-1.8,0.7l0-1.2l-2.4,2.2l-0.9,2.9l-1.6,0.4l-3.2,4.5l-2.4,2.4l-0.3,1.5l-1.5,0.3l-2,1.4l0.5,6
	l-0.5,7.5l-0.9,0l-0.6,2.4l-4.2,2.3l-1.5-2.6l-2.1-5.5l-1.4-2.1l-1.5-4.5l-2.3-4.1l-2.7-9.3l-1-5.8l-0.4,1.6l-1.6,1.6l-1.4,0.3
	l-3.6-3.1l-0.3-1.1l2.1-0.4l0.5-1.3l-1.5,0.8l-3.5-2.4l-0.1-0.3l1.2-1.1l3.6-0.3l0.9-0.7l-0.7-1.3l-3.3-4l1.9-2.8l1.9,0.2l3.8-5.8
	l0.8-2.2l0.2-3.3l-2.4-1.9l-0.2-3.8l3,0.6l2.3-1.4l0-0.1l0.2-0.2l0.2-0.2l0.7-0.5l0.2-0.1l0,0l3,4.5l0.9,1l0.1,0.1l0.1,0.4l0.1,0.1
	l0.2,0.9l0,0.2L470.8,131.8"/>
<path id="path_106" class="st0" d="M298.9,75.6l-0.1,0.1l-1.5,1.3l0.3,0.7l3,0.3l0.1,0.1l0.2,2.2l-0.8,1.7l-5.3,2l-1.9-0.7l1.6-3.5
	l-0.5-0.8l3-2l0-1.5L298.9,75.6"/>
<path id="path_107" class="st0" d="M399.7,112.7L399.7,112.7l1.5,1.6l0.9,0.2l0.4,0.1l0.1,0l0.3-0.1l0.3,0l0.1,0l2.5-1.9l0.8,0.7
	l1.5,2.4l0,0.1l3.4,3.1l3.9,1.3l3.3-1.4l-0.1-0.4l4.4-2.1l2,0.2l4.3,1.6l2.4,2l1.5,0l0.7,2.4l0.1,0.1l0.1,0.2l-0.2,3l-0.7,0.6l1.6,6
	l1.9,0.7l-0.6,3.1l-0.4,0.6l0,0.1l0.5,0.5l2.2,2.8l1.9,1.3l1.1,1.9l-0.6,1.5l-1.9,1.2l-0.1,2.4l-0.1,0l-9.2-2.4l-3.4-2l-1.4,1
	l-2.5-0.4l-4.8-2.9l-3.6-5.7l-2.9,0.6l-0.1,0l-2.1-2.6l0.1-2l-5.4-5.3l0.9-3l-0.2-1.7l-1.6-0.4l-1.7-2.8l0,0v0l-2.2-5.5L399.7,112.7
	L399.7,112.7"/>
<path id="path_108" class="st0" d="M400.5,118.8L400.5,118.8L400.5,118.8l1.8,2.9l1.6,0.4l0.2,1.7l-0.9,3l5.4,5.3l-0.1,2l2.1,2.6
	l-0.2,0.1l-0.2,0l-0.8-0.1v0.1l-1-0.3l-0.7,0.2l-0.7,1.8l-0.3,0.4l-0.4,0.1l-7.5-3.5l-2.3-1.8l-5.2-2.2l-0.5-0.1l0.3-0.3l-0.5-0.6
	l-0.6-1.6l-0.2-0.5l0.5-0.4l3.8-4.4l0-3l1.7-1.4v0l0.2,0l0.5-0.6l2.2,0.3L400.5,118.8"/>
<path id="path_109" class="st0" d="M286.1,50.8l1.3,0.4l1.7,2.2l-1.9,1.3l-7,2.2l-2.6-0.3l-1.5-0.8l-2.6,0.2l1.5-1.4l-2.2-0.7
	l2.5-0.5l0.2-0.9l-3.6-0.4l2.9-1.7l1.1,1.5l1.7,0.2l0.6-0.8l3.7,0.4l2.8-1.4L286.1,50.8"/>
<path id="path_110" class="st0" d="M383.9,129.6l0,0.1l-0.1,0l-0.2,0.1l-0.1,0.2l0,0.6l-0.1,0l-0.7,1.8l0.8,0.5l0.1,0l0,0.4l-0.3,2
	l0,0.8l-0.2,1.6l-0.1,0.2l-0.7-1.8l-0.3-0.6l-0.5-1.4l-0.2-0.5l0.2-0.2l0-0.2l0.2-0.6l0,0l0.3-0.8l0.2-0.7l0.4-1.9l0-0.3l0.6,0
	l0.2-0.1l0.6-0.7l0,0l0,0.2l0.2,0.6l-0.1,0.1L383.9,129.6"/>
<path id="path_111" class="st0" d="M342.5,116.2l-0.9,3.8l-5-2.4l-0.1-0.7L342.5,116.2 M330.6,109.7l0.1,3.7l-2.3,0.4l-0.5-4.2
	l2-0.7L330.6,109.7 M331.6,95.1L331.6,95.1l3.2-0.5l0,0.4l2.6,0.9l0.4,0.1l0,0.1l-0.5,0.3l0.4,0.8l0.3,0.9l0.1-0.1l-2.9,0.4l0.2,2.5
	l3.9,4.7l4,1.7l-0.5,0.7l4.1,2.1l0.9,2.1l-2.7-1.7l-0.6,0.9l1,1.9l-1.9,3.5l-0.7,0l0.8-2.5l-1.2-2.6l-5.2-3.1l-5.2-4.2l-0.6-2.2
	l-2.9-1.4l-1.9,1.5l-0.5,0.1l-0.3-0.9l-0.8-0.4l-0.2-3.9l0.1-0.1l0.1,0.1l2.6-1.2l1.1,1.3l0.7-1.4l1.8-0.7L331.6,95.1"/>
<path id="path_112" class="st0" d="M150.4,165l2,1.3l-3.6-0.3l-0.2-1L150.4,165"/>
<path id="path_113" class="st0" d="M391.1,130.9l-0.3,0.3l-0.3,0.3l-3.7,1.6l2,2.1l-3.2,2.8l-2.7,0l0-0.3l0-0.2l0.2-1.6l0-0.8l0.3-2
	l0-0.4l0-0.2l0.1-0.5l-0.1-0.5l0-0.6l-0.1-0.4l0-0.6l0.1-0.2l0.2-0.1l0.1,0l0.2,0l1.3,0.9l0.7,0.1l3.2-2.3l0.5-0.3l0.2,0.5l0.6,1.6
	L391.1,130.9"/>
<path id="path_114" class="st0" d="M575.3,127.6l1.1,0.1l1.2,4.7l-1,1.3l-1.5-0.6l-0.1-3l-2.2-1.7L575.3,127.6 M581,126l0.6,2.2
	l-3.9-0.2l0.8-1.7L581,126 M586.7,108.5l3.7,4.3l-0.3,3.6l1.7,5.1l0.5,0.5l-0.7,2.3l-0.7-0.6l-2.1,0.2l-0.3,1.2l-3.1-1.1l-0.8,3.9
	l-1.7-2.8l-6,1l0.2,1l-2.6-0.3l0.3-1l2.6-2.9l5.6-0.3l1.5-2.7l2.4-3l-0.7-4.5l-0.4-0.1L586.7,108.5 M588.1,101.8l3.7,1.6l0,1.1
	l-1.4,0.1l-0.5,2.3l-3.5-1.3l-2.7,0.6l0.8,2.2l-2-2.8l1.9-2l-2.3-4.9l0.4-0.3L588.1,101.8"/>
<path id="path_115" class="st0" d="M466.9,123l0.1,0L466.9,123l-0.7,0.6l-0.2,0.2l-0.2,0.2l-0.1-0.2l-0.4-0.6l-0.2-0.3l-0.1-0.2
	l0.2,0.1l0.9,0.3l0.3,0.1L466.9,123"/>
<path id="path_116" class="st0" d="M405.2,96.3l0.1,0.1l-2.7-3.3l-1.9-0.2l-1.5-1.9l0.7-4.4l2.3,1.3l-0.2-1.6l4-2.6l1.9-0.1l7.1,2.7
	l2.1-1.1h2.5l1.8,1l4-0.5l-1.1-1.5l-1-3.5l1.7-0.3l-1.7-0.5l-0.4-1.6l4.6-0.5l6.4-1.5l0.7-0.7l2.6-0.3l2.6,0.8l0.8,1.7l4.4,0.6
	l0.6,1.1l1.6,0l3.6-2.2l-0.2,1l3,1.6l6.5,5.9l5.4-0.2l5.2,2.9l2,0.4l0.7-0.7l1.8,1.5l0.1,0.2l-0.2,0l-2.2,2.2l0.9,2.3l-4.8,0.7
	l-0.1,3.1l0.7,1.3l-1.7-0.5l-2.8,0.8l2.6,4.2l-0.2,2.6l0,0l-0.4-0.3l-2.3-1.1l-10.8-0.6v0.7l-4.3-0.1l-0.4,1.1l0.1,0.1l-0.1,0.1
	l-3,2.1l-1.1,1.7l-3.4-1.3l-0.9-2l-1,0l-0.4-2.1l-2.8-2.1l-0.8,0.4l-4.7,0.1l-2.3-2.1l-10.1-1.6l1.8,8.4l0.1,0.6l-0.1,0l-0.8,0.1
	l-3-2.5l-3.1,1.3l-0.1-0.3l-0.3-2.2l-2.6-0.9l-2.5-2.9l1.7-2.4l3.4,0.1l-0.9-0.6l0.4-1.5l-0.8-1.8l-3.2-0.3L405.2,96.3"/>
<path id="path_117" class="st0" d="M386.6,196.9L386.6,196.9l1.5,2.4l2.5,0.6l2,1.5l3,0.5l2.7-2l2.1,0.7h0.3l-0.3,0.4l-1.6,2.4
	l0,9.1l1.2,2l-0.3,0.4l-1.6,1.7l-1,1.2l-2.1,4l0,0.1l-3.3-2.9l-7.8-6.2h-0.2l0-0.4l0.1-2.5l2.2-3.6l-0.2-1.9l-1.6-3.6l-0.3-0.8
	l0.4-0.5l0.4-0.5l1.5-1.7L386.6,196.9"/>
<path id="path_118" class="st0" d="M467,106.2l0.4,0.3l0.1,0.1l-4.9,2.7L461,111l-2.9-0.3l-1.6,2.5l-0.2,0l-0.1,0l-2.5,0.6l-1.7-0.9
	l-4.3,0.1l-0.2-1.1l3.1-0.6l0,0l0,0l3.8-1.4l-3.8-0.8l-1.5-1.9l0.1-0.8l0,0l-0.1-0.1l0.4-1.1l4.3,0.1v-0.7l10.8,0.6L467,106.2
	 M451.3,112.1l-0.4-0.2l-0.2-0.3L451.3,112.1 M450.4,112.3l-0.4,0l-0.1-0.1L450.4,112.3"/>
<path id="path_119" class="st0" d="M537.8,174.3l0,0.1l0.4,5.9l-2.9,1.4l-2.9,3.1l-0.4-0.3l-1.3,0.1l-0.1-1.4l-1,0.4l-0.7-2l0,0.1
	l-1.8-4.5l2.3-2.2l3.4,0.2l0,0l0,0.1l2,1l1.4-1l1.3-0.8L537.8,174.3"/>
<path id="path_120" class="st0" d="M562.2,117.3L562.2,117.3l0.3-1.2l2.3-0.9l1,1.1l3.4,4.4l0.7,3l-4.3,1.7l-1.4-1.7l0.2-1.4
	l-1.9-2.9L562.2,117.3"/>
<path id="path_121" class="st0" d="M353.5,106.2L353.5,106.2L353.5,106.2l-1.4,0.5l-0.4,0.5l0,0l0-0.1l-0.2-0.6l-0.4-0.3l-0.5-0.5
	l-0.1-0.1l0,0l-0.1-0.4l0-0.1l0.3-0.1l0.2-0.1l0.2-0.1l0.2-0.8l0.9,0.3L353.5,106.2"/>
<path id="path_122" class="st0" d="M409.3,136.5L409.3,136.5l0.5,1l-0.4-0.1l1.1,2.4l0.1,0.2l-1.6,0l-0.2-0.2l-1.9-1.1l-0.4-0.1
	l0.3-0.4l0.7-1.8l0.7-0.2L409.3,136.5"/>
<path id="path_123" class="st0" d="M523.7,155.6l1.9,1.5l0.1,1.2l3.2,0.9l1.5,2l-1.8,1.9l2.7,1.5l3.6,4.3l2.5,3.7l0.3,1.6l0,0.3
	l-0.1,0.1l-1.3,0.8l-1.4,1l-2-1l0-0.1l0.1-0.1l0.4-1.7l-0.6-2.3l-3.9-5.8l-1.7,0.4l0,0l0,0v0l-2.2-0.1l-1.7,1.7l-0.2-3.7l-0.9-1.6
	l-1.2-0.1l-0.9-1.5l0-0.1l0-0.1l0.7-1.3l-0.1-0.1l0.9-1.4l0.1-0.2l0.1,0.1l1.4,0.8l-0.7-3.2l0.7,0.2l0.1,0.1L523.7,155.6"/>
<path id="path_124" class="st0" d="M384,127.9L384,127.9l-0.1,0.1l-0.6,0.7l-0.2,0.1l-0.6,0l0.1-0.2l0.7-2.2l0-0.5l0.6-0.7l0-0.2
	l0.6-0.1l0.4,2L384,127.9"/>
<path id="path_125" class="st0" d="M293.7,191.8L293.7,191.8l0.1,0.1l0.4,3l0.8,0.2l0.7,4.6l-0.2,0l-3.1-1.7l-3.5-3.1l-1.1-0.9
	l-0.5-0.5l2.6-3.5l0.1-0.4l0-0.1l0.1,0l1.5,0.4l0.3,1.6L293.7,191.8"/>
<path id="path_126" class="st0" d="M362.6,132.3l0.1,0.1l-0.6,3.8l0.7,2.3l0.9,17.2l0,0.6l0.1,1.2l0.2,3.7l-1.6,0l-0.5,0.9l0,0.3
	l-1-0.6l-11.2-6.4l-4.7-2.7l-1.3,0.7l-0.7,0.4l0,0l-2.3,0.2l-0.6-0.5l-2.3-0.7l-1.1-0.3l-0.2-0.4l-2.5-2.1l-2.6-3.7l-0.3-10.2
	l0.2-0.1l0.2-0.1l1.1-1.2l-0.3-1.7l2.7-2.4l-0.1-1.9l0.3,0.2l4.4,0.8l3.1,1.6l1.6,2.2l2.5,0.5l3.7,2l1.2-0.6l0.6-4.3l4.1-1.7
	L362.6,132.3"/>
<path id="path_127" class="st0" d="M329.9,94.6L329.9,94.6l-0.2,0l0,0l0-0.1v-0.2l0.1-0.2l0,0l0,0.2l0,0.1L329.9,94.6"/>
<path id="path_128" class="st0" d="M480.9,186.3l2.3,2.2l2,4l-0.3,1.9l-3,1.2l-1.3-5L480.9,186.3"/>
<path id="path_129" class="st0" d="M349.4,75.2l0.2-0.3l0.1-0.2l-0.1,0.3l-0.1,0.2L349.4,75.2 M349.5,73.5l0-0.1l1.8-0.8l6.5,0.7
	l1.7,1l0.1,0l0,0.1l0.2,1l-1.4,0.9l-0.2,1.2l-3.5,0.9l-0.1,0l0,0l-0.1-0.4l-1.2-0.6l-0.1,0.1l-0.1-0.1l-0.1-0.5l0.2-0.5l-3-1v0
	l-0.1-0.2l-0.4-1.1L349.5,73.5"/>
<path id="path_130" class="st0" d="M323.2,87.3L323.2,87.3L323.2,87.3l0,0.2l0.5,1.2l0,0.1l-0.1-0.1l-0.3,0l-0.1,0.1l-0.5-0.1
	l-0.1-0.1l0,0l-0.2-0.6l0.2-0.7L323.2,87.3"/>
<path id="path_131" class="st0" d="M360.2,70.1L360.2,70.1h0.2l0.7,0.8l-0.1,0.4l1.1,1.8l0,0.1l-0.1,0l-1.3,0.8l-0.5-0.1l-0.7,0.4
	l0,0l-0.1,0l-1.7-1l-6.5-0.7l-1.8,0.8l-0.1-0.4l0.9-3l3.6,1.4l0.9-1.9l0-0.2l1.3-0.4l1.3,0.4L360.2,70.1"/>
<path id="path_132" class="st0" d="M547.2,155.8L547.2,155.8L547.2,155.8v-0.1l0.1,0l0.1,0.1l0,0L547.2,155.8L547.2,155.8"/>
<path id="path_133" class="st0" d="M180,165.9L180,165.9l-0.2,0.1l0-0.1l0.1-0.1L180,165.9L180,165.9"/>
<path id="path_134" class="st0" d="M276.5,157.7l0.2-1.2l2.3-4.8l1.5-1.6l1.6-4.2l2.1-1.8l1.2-2.6l2-0.5l2.7-2l2.1-2.9l0.1-4
	l2.9-4.1l3.1-1.9l1.7-4.1l0.8-0.2l2.4,1.7l3.8,0.1l0.4,0l1.9,7.5l-4.4,0.9l-1.1,2l-2.7,2.1l-2.5,0.6l-4.5,2.8l0,2l0,0.6h-0.3
	l0.1,1.3l-2.2,0.7l-2.3-0.4l-1.7,2.2l-1.7,3.3l-2.8,2.5l-1.8,5.1L276.5,157.7"/>
<path id="path_135" class="st0" d="M326.1,102.7l-0.1,0L326.1,102.7L326.1,102.7L326.1,102.7"/>
<path id="path_136" class="st0" d="M365.7,98.5L365.7,98.5l-0.2-0.1l-0.4-3.1l-0.2-0.4l-2.9-3.1l-0.2,0l0-0.1l2.2-0.3l2.6,1.1
	l1.9,2.8L365.7,98.5"/>
<path id="path_137" class="st0" d="M416.2,241l1.1,4l0.2,2.2l-1.3,1.3l-1.3,7.1l-4.7,13.1l-4.8,4.8l-2.9-1.4l-0.6-1.6l0.2-2.1
	l-0.5-1.6l2.5-6.8l0.3-1.8l-0.7-2.8l0-2.2l1.1-2.4l7.5-4.3l0.4-2.5l1.4-0.5l1.4-3.3L416.2,241"/>
<path id="path_138" class="st0" d="M75.6,130.7l0-0.5l4.8-0.4l0.7,0.8l5.9,2.6l5.7,0l0.2-0.8l3.6-0.3l2.3,2.9l2.4,3.9l1.8-1.9l2.5,0
	l2.9,8.3l3.6,1.1l-0.1,0.5l-1.7,3.4l-1.2,4.4l0.4,3.8l1.5,4.3l3.2,2.9l5.7-1.1l0.5,0.5l2.1-2.2l1.4-4.1l6.2-1.1l1.3,0.8l-3.3,7.1
	l-0.7-0.6l-0.1,0.1l-0.5,0.1l-1.5,1.3l0,0.2h-0.4l-3.4,0.5l-0.5,1.6l1,2.2h-2.5l-1.5,3.8l-0.1-0.1l-3-3.7l-1.9-0.9l-3.1,1.8
	l-4.7-1.5l-4.6-2.2l-2.1-1.9l-2.9-0.9l-3.8-5.1l1.2-1.8l-2.4-7.2l-3.7-5l0.6-0.8l-1.7-2l-0.2-1.6l-3.1-7.4l0.4-1l-3.3-1.8l-0.4,3.4
	l1.7,4.2l2.1,6.6l0.6,3.1l-0.2,1.3l2.1,2.1l-1.3,1.5l-0.5-1.8l-2.9-3.1l0.4-2.6l-2.4-2l-2.2-2.8l1.7-0.2l0-2.9l-1.8-3.3l0.2-1
	L75.6,130.7"/>
<path id="path_139" class="st0" d="M355,106.1L355,106.1l0.4,0.4l1.1,1.1l-0.1,0.3l0,0.6l0,0h-0.1l-2,0.9l-1.3,0.2l-0.3,0l0-0.1
	l-1.1-1.6l0.1-0.8l0,0l0,0l0.4-0.5l1.5-0.4l0,0l0.1,0l0.2-0.1L355,106.1"/>
<path id="path_140" class="st0" d="M320,163.5l0.7-0.1l0,0.4l-0.2,6.4l-1.3,2.2l-4.7,0.5l-2.2,0.8l0,0.1l-0.4-0.2l-1.6-0.2l-5.2,3.4
	l-0.1,0.9l-1.8-0.1l-0.6,2l-1.8,1.6l-0.5,3.3l0,0.1l-0.1,0l-1.4,0.4l0-1.1l-3.6,1.4h-0.1l0-0.2l-1.8-4.2l-5.1-0.2l-0.3-0.9l0.1-0.1
	l0-0.2v-1.1l-1.6-4.2L286,174l0.4,0.2l0.9-1.9l1.4,0.7l3.3-1l0.5,0.3h7.7l-2-22.9l2.9-0.6h0.7l0.6,0.5l16,12.4L320,163.5"/>
<path id="path_141" class="st0" d="M510.6,140.9L510.6,140.9l3.1,1.6l0.7,2.4l-1.4,5.2l0.5,1.5l2.5,0.4l3.3,4.9l2.6,0.4l0,0
	l-0.1,0.2l-0.9,1.4l0.1,0.1l-0.7,1.3l0,0.1l-0.3-0.2l-4.2,2.8l-0.6,1.9l3.5,5.4l0,2.2l-0.7,0.5l2.1,3.1l1.8,5.3l-1.6,3.9l-0.1,0
	l0-2.6l-2.9-8.9l-0.2-1.4l-1.8-4l-4.9,2.9l-0.1-1.5l-0.9,0.9l0.3-3.6l-4.2-6.9l-1.6-0.8l-0.1-0.2l0.4-1.2l-0.3-1.7l0-0.1l0.1-0.1
	l0.9-0.5l-0.1-4.4l1.2,0.2l0.9-2.8l-0.4-0.4l0.5-3.4l3.1-2.6l0.6-1.3L510.6,140.9"/>
<path id="path_142" class="st0" d="M348.7,103.2L348.7,103.2L348.7,103.2l1,0.9l0.2,0.1l1.1,0.6v0.1l-0.2,0.1l-0.3,0.1l0,0.1
	l0.1,0.4l0,0l0,0l-0.6-0.1l-0.2-0.1l-0.5,1.9l-0.3-0.2l-0.6-0.7l-0.5-0.3l-0.2-0.1l-0.1,0l-0.1-0.1l-0.1-0.1l0-0.1l0,0l-0.1-1
	l0.3-0.1L348.7,103.2"/>
<path id="path_143" class="st0" d="M528.9,87.9l0.2,0.1v0.3l1.2,4.8l3.2-0.7l5.6,3.2l-2.1-0.2l-2.5,0.4l-2,2.7l-2.1,0.2l-1.1,1.5
	l-2.1-0.4l-0.4,2.4l-1.6,2.8l-1.5,0.8l-5,0.4l-2.3,1.3l-12.1-1.9l-4.6-0.5l-5.5-3.6l-2-0.9l-4.2-0.9l-3.3-1.2l0.1-1.4l-1.4-2.2
	l-6.6-3.7l-0.8-1.3l-0.1-0.1h0l1.9-0.7l1.4-1.5l4.8-1.3l3.6,1.5l5.7,0.2l0.7-0.3l-1.6-2.3l0.9-2.5l6.8,1.9l1.1,1.7l4,1l4.3-0.4
	l5,2.4l3.3,0.3l3-0.5l2.7-1.9L528.9,87.9"/>
<path id="path_144" class="st0" d="M379.3,276.5L379.3,276.5l-0.2,0l-0.9,0l-0.3-0.1l-0.2,0l0-0.8l-0.1-0.6l0-0.2l-0.1-0.6l0,0
	l0-0.2l0.3-3.1l-1.1-5.4v-0.1l0.3-0.3l3.3-5.1l0.6-7.3l-0.6-1.6l-4.6-1.9l0-0.4l0-0.3l1.2-1.9l1.3-0.4l3.1-1.2l0.5-0.2l0.1,0.1
	l0.5,1l1.7-0.1l-0.3,3.5l0.3,1l1.7,1.4l1.2-2.1l-0.9-5.1l-1.7-4.1l1-1.6l0.3,0l0.5,0l4.3,0.3l2.7-0.7l4.2-2.3l0.1,0.3l-0.4,5.9
	l0.3,4.8l-2,3.7l-2.1,1.5l-2.9,1.3l-2.2,2.3l-3.9,3.5l1.1,8l-0.9,3.4l-2.8,1.3l-2.7,2.3L379.3,276.5 M385,240.2l-0.1-0.3l0.1,0
	V240.2 M384.9,240l-0.2,0l0-0.1L384.9,240"/>
<path id="path_145" class="st0" d="M301.9,148.9h-0.7l-2.9,0.6l2,22.9h-7.7L292,172l-3.3,1l-1.4-0.7l-0.9,1.9L286,174l0,0l-2.3-3.1
	l-2.3-1.5l-3.6,0.3l-0.7,1.7l0-1.1l1.1-3.9l-0.7-6.8l-1.2-1l-0.1,0.6l0.2-1.3l10.4-5.3l0.2-5.6l1.5-0.6h5.4l0-2.8l0-0.4l0.4,0.3
	l4.6,3.3l0.4,0.3l2,1.5L301.9,148.9"/>
<path id="path_146" class="st0" d="M385,240.2l-0.1-0.3l0.1,0V240.2 M384.9,240l-0.2,0l0-0.1L384.9,240 M381.4,233.5L381.4,233.5
	l2.3,0.2l0.7,0.6l1.2,4.4l0,0.1l-0.3,0l-1,1.6l1.7,4.1l0.9,5.1l-1.2,2.1l-1.7-1.4l-0.3-1l0.3-3.5l-1.7,0.1l-0.5-1l-0.1-0.1l-0.1-0.2
	l-0.8-1l1.1-2.4l0.2-4.2l0.4-0.2L381.4,233.5L381.4,233.5"/>
<path id="path_147" class="st0" d="M561.6,200l0.3,0.2l-0.3,0l-0.2,0l0-0.1l0-0.1l0.1,0L561.6,200 M524.1,194.9l-0.1-0.3l2.1,0.7
	l-0.2,1l2.3-1.2l0.4,0.1l2.1,2.3l0.7,2.1l0.3,4l1.6,3.4l-1.9-0.4l-2.6-1.7l-3.1-4.2L524.1,194.9 M556.4,199.7l0-1.4l2.8-5l5.4,3.9
	l-1.3,2.2l-2.1,0.6l-0.1,0.1l-4-0.1l-1.7,5.6l-2.3,1.6l-2.6-0.7l-3.9,1.7l-1.2-0.9l-0.9-1.9l0.1,0.3l3.3,1.2l1-3.6l3-1.2l1.8-3.1h0
	l1.1,1.3l0.5-0.7l0.4-1.3l0.2,1.3L556.4,199.7"/>
<path id="path_148" class="st0" d="M360.1,254l0.7-0.1l0.5-0.1l2.4-0.2l0.7,0.3l0.3,0.4l-0.1,0l-2.3,0.7l-1.9-0.2l-4.2,0.8l-0.6,3.5
	l-0.2,5.6l-2.1,1.3l-0.2,5.5v0.1l0,1l-0.4,8l-1.7,1.2l-3.5-0.6l-0.7-1.7l-1.3,1.5l-0.2-0.2l-1.9-2.8l-1.2-7l-0.5-5.8l-0.7-1
	l-4.4-9.3l-0.1-1.3l0.1-0.5l2.9-0.7l1.9,1.1l9.2,0l0.9,0.9l5.3,0.6L360.1,254"/>
<path id="path_149" class="st0" d="M653.8,260.3l4.3,5.1l-3-2l-1.1-1.7L653.8,260.3"/>
<path id="path_150" class="st0" d="M342.8,153.8L342.8,153.8l0.3,1.4l1.5,6.2l-0.4,7.4l-2.3,2.9l-1.7,4l0.2,1.1l-0.4,0l-1.9,1.3
	l-4.3-0.3l-1.8,1.3l-1.8-0.2l-2-1.1l-2.4-0.1l-2.4-1.3l-2.8,1l-1,4.2l-0.1,0.1l-0.1-0.2l-2.2-1.2l-0.1,0.7l0,0.2l-0.1-0.1l-1.6-1.7
	l-1-0.9l-1.9-4.6l0-0.1l0-0.1l2.2-0.8l4.7-0.5l1.3-2.2l0.2-6.4l0-0.4l0.5-0.1l5.3-3.2l1-1l8.1-5.8l1.1-0.7l1.1,0.3l2.3,0.7l0.6,0.5
	L342.8,153.8"/>
<path id="path_151" class="st0" d="M319.4,181.7l0.1-0.1l1-4.2l2.8-1l2.4,1.3l2.4,0.1l2,1.1l1.8,0.2l1.8-1.3l4.3,0.3l1.9-1.3l0.4,0
	l0.3,0.5l0.4,0.6l0.3,0.4l0.2,1.1l0.9,2.2l-1.8,2.1l-1,3l-1.7,2.6l-0.8,2.5l-2,2.7l-1.7-0.9l-2.7,2.4l-0.9,2.9h0l-4.8,0.9l-1.5-0.7
	l-3.1-4.3l-2.9,0.1l-0.1,0l0.1-6.6l0.7-0.3l1.4-3.1l-0.5-2.9L319.4,181.7"/>
<path id="path_152" class="st0" d="M127.8,178.6L127.8,178.6l1.4-0.9l0.1-1.1l7-3l0.8,0l-0.1,0.1l-0.7,2.4l-0.5,2.6l-0.8,4.9l0.2,0
	l-0.6,0.4l-1.5-0.8l-2.3,0v-0.1l-1.4-1.6l-0.7-1.3L127.8,178.6"/>
<path id="path_153" class="st0" d="M319.4,84.4l-0.1,0.3l-1.3-0.3l0.1,0l0.8,0.1l0.2-0.1L319.4,84.4 M322.3,85.8L322.3,85.8l-2-1.5
	l-0.9,0l-0.6,0l2.2-3.7l3.6-0.8l0.3,0l-2.2,3.6l0.5,0.6l-0.2,1.4l-0.1,0.4l-0.4,0l-0.1,0L322.3,85.8"/>
<path id="path_154" class="st0" d="M331.7,66.7L331.7,66.7l-1.7-0.6l-3.2,2.2l-2.6,0.6l-2.5-1.4l0.5-1l-1.1-1.3l0.6-1.1l-1.1-2.1
	l3.3,0.2l1-0.4l-3.8-0.7l-0.6-0.9l2.7-1.1l3.3-2l2.4-0.2l-0.8-0.7l3.3-2.4l2.1-3.5l2.7-1.6l1-1.9l2.5-0.6l-0.8-0.5l3.8-2.3l0.8,0.7
	l0.9-1.1l2.7,0.2l1-1.1l1.2,0.8l1.4-1.9l3.7,0.1l-0.1,0.9l2.6-1.2l4.4,1.4l-3.4,0.3l3.2,0.7l0.2,0l0,0.5l-2.2,0.5l-0.3,0.5l-0.2,0.1
	l-0.1-0.1l0.1-1.3l-2.2-0.8l-4.2,3.1l-3.1-0.2l-2.5-1.2l-1.5,0.4l-0.1,0.1l-0.2,0l-5.7,2.4l-0.4,1.6l-2.9,2.2l-0.8,3.5l-2.9,2.7
	l0.5,3.5l1.3,0.8l-0.5,2.8L331.7,66.7 M343.4,26.1l2.4,1.1l-0.5,0.9l-2.2-0.2l-1.6-1.6L343.4,26.1 M335.9,23.8l3.4,1.3l3.7,0.8
	l-4.1,1.3l-2.5,2.6l-3.9-1.7l3.9-1.5l-0.1-0.6l-6.8,0.1l-1.8-1.3l0.9-0.9l4.5,0.1l2.4,1.4l-0.7-1.8L335.9,23.8 M341.7,23.2l2.8-0.4
	l0.4,0.5l5.8,0.2l-3.1,1.2L345,25L341.7,23.2"/>
<path id="path_155" class="st0" d="M491.8,141.7l0.2,0l0.1,0.1l0.4,2.3l-1.9,1.2l-4.2-1l-2.2-1.4l-1.9,0.1l-6.5-3.1l-0.9-0.6
	l0.3-2.1l0.9-1.1l0.1,0l0.1,0.2l0.6-0.6l6,2.8l0.4,0.8l2.7,1.6l4.1,1.1L491.8,141.7"/>
<path id="path_156" class="st0" d="M648.9,312.2l2.7-0.6l-1.2,1.8l-5.9,5.2l-3.5,0.6l-7.4,5.8l-2.7-0.5l-2.4-0.9l6.7-4.6l3.3-1.2
	l10.1-7.3L648.9,312.2 M658.2,296.6l1.1,0.3l-0.3,3.8l-0.5,0.6l3.2,2.8l2.8-1l-1.4,2.4l-2.5,1.3l-1.5,1.5l-5.5,4.3l-1.6,0.1l2-2.3
	l0.5-1.4l-1.6-1.4l3.1-2.3l2.4-3.3l-0.7-0.4L658.2,296.6"/>
<path id="path_157" class="st0" d="M426.1,154.5l0-0.4l0.3-2.7l0.4-2.3l1.2-0.3l0.3,0.7l6.7,5.1l0.9,0.4l-6.1,11.2l-1.6,0.3
	l-1.6,2.3l-3,0.6l-0.4,0.2l-0.7-1.5l-0.2-0.1l-1.8-3.9l-0.1-0.2l0.3-0.1l4.9-2l1.3-2.6l0.5-2.7l-0.9-1.5L426.1,154.5 M427.1,146.2
	l0.1-0.4l0.5,0.2l-0.1,1v0.1l-0.2,0l-0.1-0.1L427.1,146.2"/>
<path id="path_158" class="st0" d="M464.8,122.5L464.8,122.5l0.2,0.3l0.2,0.3l0.4,0.6l0.1,0.2l0,0.1l-2.3,1.4l-3-0.6l0.2,3.8
	l2.4,1.9l-0.2,3.3l-0.8,2.2l-3.8,5.8l-1.9-0.2l-1.9,2.8l3.3,4l0.7,1.3l-0.9,0.7l-3.6,0.3l-1.2,1.1l0,0.1l-1.9-0.9l-2.5-3.5l-9.7,1
	l0,0l0.1-2.4l1.9-1.2l0.6-1.5l-1.1-1.9l-1.9-1.3l-2.2-2.8l-0.5-0.5l0.8,0.3l6,0.9l4.1-1.1l-0.1-2.4l1.2-1.2l4.3-1.6l0.3-2.9l1-0.7
	l0-1.4l1.6-3.7l-0.7-1.2l5.6-2.6l0.2-0.1l0.1,0l2.8,1.1l1.2,1.9L464.8,122.5"/>
<path id="path_159" class="st0" d="M137.2,186.9l0.1,0.1l0.8,1.4l5.8-1.6l3.4,1.7l0.7,0.6l0.2,1.8l-1.5,1.7l-0.1-0.1l-0.3-2.8
	l-2-1.5l-3,1.9l0.9,1.8l-1.4,0.7l-3.2-2.5l-1.3,0.3l-0.1,0.1l0.4-2.2l-0.4-0.7L137.2,186.9"/>
<path id="path_160" class="st0" d="M163.2,220.7l0.1,0.2l0,0.2l-2.1,0.1l-3.6,1.8l-2.5,6.1l2.7,4.6l1.4,1.5l3.2-0.4l0.2,2.9l2-0.1
	l0.2,0l0.3,0.5l1.8,3.3l-0.6,2.9l0.5,1.2l-0.7,1.1l0.1,7.2v0l-0.1,0.2l-0.3,1l-0.1,0.3l-1.1,0.6l-0.2-0.2l-5.2-4.1l-5.1-3l-2.8-3.2
	l0.1-1.5l-3.5-5.5l-0.3-1.1l-3.1-6.5l-2.5-3.8l-2.2-1.5l0.5-1l-0.7-1.9l1.4-3.4l0.4-0.3l-0.2,2l3.8,0.9l1.5-3.7l2.6-1.2l2.3-2.5
	l0.7-1.4l-0.2-2l0.1-0.1l0.1-0.2l6,5.9l1.8-0.5l3.2,1.2l-0.9,2.9L163.2,220.7"/>
<path id="path_161" class="st0" d="M578.3,187.5l1.6,5.3l-0.6,1.1l-1.1-1.4l-0.7,1.5l0.7,1.7l-0.6,0.9l-3-3.7l0-1.1l-3.1-0.5
	l-0.9,2.1l-0.4-0.7l2.3-3.2l4.9-1.2l-0.3-1.6L578.3,187.5 M572.2,188.2l-1.7-1.5l0.8-1l0.1-2l1.2,0.7L572.2,188.2 M570.3,181.9
	l1.3,1l-0.6,0.9l-1.6-0.4l-0.1-1.8L570.3,181.9 M564.8,164.6l2.4,0.3l1.2,3.4l-1.5,4l2,3.4l1.5-0.2l2.9,2.8l-1.8-0.2l-1.7-2l0.2,1.8
	l-1.3-1.5l-3.5-2.7l-1,0.1l-1.1-3.6l1.2,0.3l-0.6-3.5l0.3-2.2L564.8,164.6"/>
<path id="path_162" class="st0" d="M634.1,221l-0.3,3.1l-2.6,1.4l-2.3,0.3l-2.6-1.3l0.1-0.7l5.4-0.1L634.1,221 M611,216.8L611,216.8
	l5.3,2l4.6,3.4l-0.1,1.4l4.2,2.4l-0.5,3.7l4.4,4.5l-0.4,0.8l1.1,1.5l-6-1.8l-2.7-4.5l-2.2-0.7l-3.1,0.5l-0.6,1.6l-4.7,1.4l-0.3-0.3
	l0.4-5.6l0-0.6l0.7-9.7V216.8L611,216.8 M636.2,222.1l-0.6-1.5l-3.9-3.4l2.7,1.3l2,2.1L636.2,222.1"/>
<path id="path_163" class="st0" d="M347.2,77.2L347.2,77.2l4.7,0.2l1,0l0.1,0l0.1-0.1l1.2,0.6l0.1,0.4l0,0l0.3,0.8l0.7,2.2l-1.1,1
	l0.8,1.5l0.2,0.2l0.1,0.2l0.4,2.5l-1.3,3.1l-0.5,0l-0.1,0l-0.1,0l-1.6-0.8l-2.4,0.1l-2.7-0.3l-0.2,0l0-0.1l-0.7-0.9l-3-1.2l-0.4,0.7
	l-2.8-1.8l-0.7,0l-0.2,0l0,0l-0.6-2.3l0.2-0.6l-1.2-3.9l0.4,0.1l0.1-0.4l-0.4-0.1l-0.2,0l0-0.1l0-0.1l0.1,0l4.1-1.4l2.7-0.7
	L347.2,77.2"/>
<path id="path_164" class="st0" d="M555.4,111.8L555.4,111.8l3.7-3.8l2.2,0.4l-0.8-1.3l1.9-0.8l0.5-1.4l1.6,0.5l0.1,0.1l0.1,0.2
	l0.4,0.4l0.1,0.1l-0.1,0.1l-1,1.7l0.9,1.6l-3,2.8l0.3,1.4l2.4,1.3l0.2,0.1l-2.3,0.9l-0.3,1.1l0,0l-4.2-0.8l1.1-1.4l-1-0.5l-0.3-1.6
	L555.4,111.8"/>
<path id="path_165" class="st0" d="M294.5,107.3l0.2-0.3l3.4,0l0.1,4.9l-1.1,0.6l-0.1,6.2l-0.2,0l-3,0.3l0.5-2.8l-0.9-3L294.5,107.3
	"/>
<path id="path_166" class="st0" d="M190.7,259.6v0.4l0.1,0.2l0.8,4.6l5.1,2.4l0.3,1.2l2.8,1.1l-0.4,3.4l0,0.4l0.1,1.1l-1.8,3.5
	l-1.6,0.2l-4.5-0.7l1.6-3.9l-0.5-1.1l-6.6-3.2l-2.2-1.7l-2-2.3l-0.1-0.1l0-0.1l1.1-6.3l3.6-0.9l1.9,0L190.7,259.6"/>
<path id="path_167" class="st0" d="M417.8,149.7l-0.3,0.1l-0.9-0.2l-0.1-0.3l0.1-0.2l-0.3-1.4l0.8-1.9L417.8,149.7"/>
<path id="path_168" class="st0" d="M365.5,98.4l0.1,0.2l0.2,0.2l0.3,0.1l1.1-0.1l1.3,0.1l0,0.2l-1.4,0.7l0.1,0.3l-0.4,2.5l0,0.1
	l-3.4-1l-0.7,0.2l-7.2-0.3l-0.1-0.1l0,0l-1.9-1.1l-1.3-1.5l-1.8-1.8l-0.1-0.1l0.1-0.1l1.4-0.3l1.5-3l1.5-1l0-0.1l0.1,0l2.4,0.1
	l1.4,0.5l3-1.3l0.1,0l0.2,0l2.9,3.1l0.2,0.4L365.5,98.4"/>
<path id="path_169" class="st0" d="M570.1,77.3l11,12.2l-1.9,0l1,3.1l4.2,3.7l0.2,0.8l-2.4-1.6l-0.5,1.5l-7.3-12.3l-1.3-1l-2.9-4.1
	l0.8,0L570.1,77.3 M349.5,75.2l-0.2,0.2l-0.4,0.5l1.1-0.3l0-0.4l3,1l-0.2,0.5l0.1,0.5l0.1,0.1l-0.1,0l-1,0l-4.7-0.2l0.3-0.2l0.2-0.2
	l0.9-0.7l0.7-0.6l0.1-0.1L349.5,75.2 M21.6,45.1l1.3,1.3l2.7,1.4L23.7,50l1.3,0.4l2.1-1.4l2.4,0.4l0.6,1.2l-3,1.8l-1.8-0.2l-1.2,1.2
	l-1.8,0.5l-0.5,0.9l-3.6-2.5l-3.1,0.1l0.3-1.2l-4.2,2.1L21.4,45L21.6,45.1 M30.1,39.7l1.2,0.7l-4.6,0.5l1.5-1.1L30.1,39.7
	 M397.5,36.2l1.8,0.2l-0.4,2.7l4.4,2.3l-3.7,0.1l-3.1-0.4l-0.5-1.1l-2.9-0.4l2.2-3.5L397.5,36.2 M534.3,32.2l6.6,0.4l-3,0.7
	l-4.2-0.8L534.3,32.2 M523,31.3l1.5-0.6l7,1.1l-2.1,0.9l-2.3-0.7l1.9,1.2l-4.5-0.3l-2.2,0.3l-2.6-0.9l0.7-1.8L523,31.3 M413.6,30.5
	l-7.7,1.6l-3.6,1.4l-2.3,2.6l-4.5-1.1l1.6-1.7l-0.5-0.6l2.5-0.4l5-1.8l5.4-0.4l4.3-0.8L413.6,30.5 M361.2,43.4l0.3,0l1.4-0.4
	l5.6,1.4l10.1,3.3l1,1.7l-3.8,1.8l-5.4-0.7l-4.4-1.1l1.2,1.3l2,0.8l-0.2,1.2l1,1.3l5.2,2l0.5-0.1l-2.9-2.1l6.2-0.1l0.7-2.2l3.9-0.6
	l1.1,0.7l-1.3-4.8l-1.5-0.7l4.1,0.3l1.6,1.1l-2.5,1l3.3,1.4l1.3-0.2l3.2-2.4l4-1.4l2.6-0.5l1.4,1.2l3.9-0.6l2.1-0.8l0.8,1.2l2.5-1.1
	l-1.7-1.4l1-0.4l3.9,0.4l6.6,1.7l2.8,1.2l0-1.3l-5.2-3.9l1.3-1.5l1.1-2.9l5.3,0.6l-0.1,2.5l2.1,1.3l3.2,6.7l-1.1,2.6l3.7-1.3
	l0.8-1.6l-1.4-2.1l2.8-0.5l2.5,2.5l0.8-1l-1.3-1.3l-3-0.7l-2.5,0.2l-2-2.1l0.3-3.6l1.5,1.4l5.6,0.5l-5.1-1.2l-0.3-0.8l2.8-0.8
	l8.3,1.5l-0.7,1.4l1.3,0.2l0.3,1.3l1.3-0.5l-2.2-2.6l-3.1-1l-3.4-2.5l8.8-0.6l-1.5-0.8l1.4-1.6l3.2-0.9l7.9-1l0.3,0.4l3.6-0.6l2,0.4
	l1-1l-0.4-1.3l2.3-0.8l4.1,0.4l2.9,0.9l6.4,0.5l5.9,2.7l-5.5,3.1l-1.7,0.7l1.9,0.3l2.4-0.6l-0.5-0.7l5.8,0.2l0.6,0.4l4.3-0.3
	l3.2,0.2l0.6,0.7l7.6,0.6l1.3-1.5l6.7,0.9l2,2.4l4.1,2l2.7,0.8L520,39l3.4,1.1l1.8-0.5l6.1,0.3l-1.7-2.1l7.2-0.4l3.8,1.4l1.7-0.8
	l1.6,0.1l6.4,1.9l1.9,0.8l6.3-0.2l3.5,0.1l3.8,0.9l1.6,1.5l4.1,1l1.9-0.7l7.4,0l1.8,0.9l4.7,0.9l0.2-0.5l-2.8-1.2l-0.7-1l8.9,0.4
	l9.2,1.9l10.1,8.3l1,3.2l4,2.7l-4.1-0.7l-0.3,0.7l-3.1,1.4l-1.9,2.7l0.2,1.2l-2.3-1.1l-2.4-0.3l-2.3,1.7l-0.6-0.7l-4,0.3l-0.1,0.8
	l5.8,7.8l0.1,1.8l2.2,1.7l-1.5,0.4l-1.1,1.4l0,3.2l0.6,0.8l-0.8,3.2l-10.2-10.2l-1.8-3.1l-0.6-2.4l2.8-2.4l-0.2-0.7l2.4-4.3
	l-2.5-3.7l-1.2,0.3l1.1,1.7l-2.4,2.6l-1.9-1.5l-0.4-1.1l-1.9-0.2l-3.3,0.5l-1,4.1l0.2,1.4l-3.5,0.8l-2.5-1.5l-2.2-0.5l-0.3,1.1
	l-1.4-0.3l-3.7,0.5l-1.1-0.5l-4,0.1l-2.1,2.2l0.1,1.4l-1.7,1.9l-0.6,2.3l-1.7,2.9l3.1,0.4l4.7,2.3l1-1.6l4.7,2.3l-0.5,0.6l2.7,2.6
	l-0.3,0.7l0.9,2.5l2.1,3.7l-0.2,6.6l-2.1,6.6l-2.8,2l-4.3,0.9l-0.1,0.1l-0.1-0.1l-0.4-0.4l-0.1-0.2l0.1-0.1l0.5-0.9l-1.9-4.9
	l2.6-0.2l0-3.5l-3-3.8l-4.1,1l-4.4-3.6l-4.3-1l-5.2-5.1l-3.7-3l-6.7-1l-2.5,0.7l1.6,2.8l-0.6,0.9l-0.1,2.8l0.6,0.8l-1.9,1.3
	l-2.1-0.5l-0.5-0.2l-0.2-0.1l-5.2-0.8L521,89l-3,0.5l-3.3-0.3l-5-2.4l-4.3,0.4l-4-1l-1.1-1.7l-6.8-1.9l-0.9,2.5l1.6,2.3l-0.7,0.3
	l-5.7-0.2l-3.6-1.5l-4.8,1.3l-1.4,1.5l-1.9,0.7h0l-0.1,0l-0.4,0.1l0,0.1l-0.1,0l-0.2,0l-0.1-0.2l-1.8-1.5l-0.7,0.7l-2-0.4l-5.2-2.9
	l-5.4,0.2l-6.5-5.9l-3-1.6l0.2-1l-3.6,2.2l-1.6,0l-0.6-1.1l-4.4-0.6l-0.8-1.7l-2.6-0.8l-2.6,0.3l-0.7,0.7l-6.4,1.5l-4.6,0.5l0.4,1.6
	l1.7,0.5l-1.7,0.3l1,3.5l1.1,1.5l-4,0.5l-1.8-1h-2.5l-2.1,1.1l-7.1-2.7l-1.9,0.1l-4,2.6l0.2,1.6l-2.3-1.3l-0.7,4.4l1.5,1.9l1.9,0.2
	l2.7,3.3l0,0.1l-3.9,4.5l2,3.4l2.5,2.8l0.2,0.1l-1.1,1.5l-2.9-1.6l-0.2,0l0,0l-1.6-1.4L392,104l-1.9-0.8l-1.2,0.3l-0.2-0.1l-6.9-4.2
	L385,97l-1.5-1.1l1-1.5l-0.5,0.2l0.9-1.8l2-1l-0.8-1.8l0.7-0.6l-3.8-1.9l-0.3,0.3l-3.8-1.2l-0.8,0.2l-3-2.1l-1.3-2.6l-3.5,0.6h0
	l0-0.1l0.2-2.3l-0.7-1.6l-2.2-3.3l-0.1-0.8l-2.6-0.3l-2.3-0.9l-0.3-0.2l0-0.1l-1.1-1.8l0.1-0.4l-0.7-0.8l-0.2,0l0-0.1l0.2-0.6
	l-0.5-2.1l0.7-1.7l0.1-0.2l1.5-1.4l-1.7-0.8l-0.7,0.1l4.7-4l0-1.9l-2.1-1.1l-1.3-2.9l0.1-2.1l-1.7-1.8l-1.5-3.2l0.3-1.4l0.1,0
	l0.2-0.1l0.3-0.5l2.2-0.5L361.2,43.4 M461,24.9l4.1,0.8l0.8,0.6l-5.6,0.6l-1.8-0.4l0.8-1.9L461,24.9 M451.8,23.3l4.1,0.7l-0.1,1.7
	l-4.9-0.3l-4.4-1.1l1.5-0.8L451.8,23.3 M448.4,21.8l2.5,1.4l-4.3,0.4l-3.7-0.4l0.8-1.2L448.4,21.8"/>
<path id="path_170" class="st0" d="M376.5,213.1L376.5,213.1L376.5,213.1l0.7,1.2l0.1,1.7l-0.6,0.3l-0.1,0l-0.1,0l-0.9,0l-0.8,0.9
	l-1.4-0.3l0,0.1l-0.2-0.1l-0.1-0.6l0.6-0.6l0.9-1.9l0.1-0.1l0.1,0l1.5-0.7L376.5,213.1"/>
<path id="path_171" class="st0" d="M294,142.7l0,0.5l0,0.4l0,2.8h-5.4l-1.5,0.6l-0.2,5.6l-10.4,5.3l-0.2,1.3l-0.1-0.1l0.2-1.3l0-0.1
	l4.9-0.6l1.8-5.1l2.8-2.5l1.7-3.3l1.7-2.2l2.3,0.4l2.2-0.7l-0.1-1.3h0.3L294,142.7"/>
<path id="path_172" class="st0" d="M390.8,131.2l0.5,0.1l5.2,2.2l2.3,1.8l7.5,3.5l0.4-0.1l0.4,0.1l1.9,1.1l0.2,0.2l1.6,0l0.1,0.2
	l1.1,2l2.4,2l2,4.9l0.2,0.2l0.1,0.3l0.9,0.2l0.2,0.1l0.1,0.2l-0.1,0.3l0.5,0.1h0.1l0.1,0.5l2.3,2.8l5.4,0.8l0.1-0.2l0.2,0.3l0.9,1.5
	l-0.5,2.7l-1.3,2.6l-4.9,2l-0.3,0.1l-0.5,0.1l-5.6,0.9l-3,3.1l-2.5,0.2l-6.5-0.3l-0.7,2.4l0-0.2l-2.4-3.5l-2-4l-2.3-2l-5.6-9.9
	l-1-2.5l-4.6-6.8l-1-0.2l0-1.5l0.2-1.6l2.7,0l3.2-2.8l-2-2.1l3.7-1.6L390.8,131.2"/>
<path id="path_173" class="st0" d="M363.6,156.3h0.8h10.3h2.3h11.3l0.1,0.6l0.9,3l0.5,3.6l2.7,2.5l0.1,0.2l-2.3,2.2l-0.9,0.2
	l-0.8,6.1l0.1,0.7l-0.1,0.7l-2.9,7.5l-0.7,0.2l-0.9,3.4v0.1l0,0l0,0l-2.3-5.2l-1.5,0.9l-2.3,3.6l-1.6-0.4l-5.1,1.6l-2.9-0.4
	l-1.9-2.3l-2.1,2.2l-1.3,2l0,0.1l0,0l-0.2-0.1l-0.9-1.6l0-1.2l-1.6-2.4l-0.2-0.3l0.1-0.3l-2.3-4.5l0.8-1.1l0.2-3l1.1-1.5l2.1-1.4
	l-0.3-8.2l0-1.1l0-0.3l0.5-0.9l1.6,0l-0.2-3.7L363.6,156.3"/>
<path id="path_174" class="st0" d="M362.9,189.1L362.9,189.1l1.3-2.1l2.1-2.2l1.9,2.3l2.9,0.4l5.1-1.6l1.6,0.4l2.3-3.6l1.5-0.9
	l2.3,5.2l0,0l0,0v0.1l-2.2,3.6l0.2,0.3l4.7,5.7l0,0l-0.4,0.4l-1.5,1.7l-0.4,0.5l-0.4,0.5l-0.5,0.6l-1.6,0.3l-2.2,0.7l-2.3,0.2
	l-0.1,0.1l0-0.1l-2-2l-2-0.4l-3.2-1.4l-0.1-0.2l-0.2-0.2l-2.1-3.6l-2.5-2.3l-2.1-2.7L362.9,189.1L362.9,189.1"/>
<path id="path_175" class="st0" d="M285.9,174L285.9,174l0.2,0.4l1.6,4.2v1.1l0,0.2l-0.1,0l-2.3,0.1l-1.8-0.7l-0.7,0h-0.7l-2.4,0
	l-1.4,0.6l-1.8,0.2l-0.1-0.1l0-0.5l0-1l0-0.2l2-0.6l4.1,0l-0.6-0.5l-5.1-0.1l0-0.2l-1.2-2.3l1.3-2.7l0.1-0.3l0.7-1.7l3.6-0.3
	l2.3,1.5L285.9,174"/>
<path id="path_176" class="st0" d="M283.7,188.3l0-0.2l1.9-2.1l1.1-0.2l2.4,1.5l0.8,2.2l0.2,0l0,0.1L290,190l-2.6,3.5l-0.1-0.1
	l-1.7-1L283.7,188.3"/>
<path id="path_177" class="st0" d="M123.8,175L123.8,175L123.8,175l2.5,1.1l0.7,0.2l-0.1,1.2l-0.1,0l-0.8,0.5l-1.4-0.3l-2.2-1
	l-0.2-0.1l0.1-0.4L123.8,175"/>
<path id="path_178" class="st0" d="M415,182.8L415,182.8l0.2,3.2l0,1.3l-1.6,3l-0.3,0.6h-0.7l-8.9-3.4l-0.6-1l-0.8-2.9l0-0.1
	l0.2-0.5l0.2-0.4l0.2-0.3l0.4,0.4l2.1,2.3l1.2,0L415,182.8"/>
<path id="path_179" class="st0" d="M400.2,214.3l-0.2,0.3l-1.2-2l0-9.1l1.6-2.4l0.3-0.4l0.1-0.1l2.5-1.5l3.8-0.6l5.8-7l0.5-0.6
	l0.3-0.6l1.6-3l0-1.3l-0.1-3.2l0.3,0l3.6-1.8l0.4,4.3l-0.4,2.8l-4,8.9l-3.7,5.4l-1.7,2l-3.6,2.7l-1.8,1.9L400.2,214.3"/>
<path id="path_180" class="st0" d="M347.8,97.4L347.8,97.4l0.4-0.1l0.6-0.2l1.4-0.1l0.1,0l0.1,0.1l1.8,1.8l1.3,1.5l1.9,1.1l0,0
	l-0.1,0l0.4,3.2l-0.5,0.1l0,1.3l-0.2,0l0,0l-1.1,0.1l-0.2,0.1l-0.1,0l0-0.1l-1.1-2l-0.9-0.3l-0.2,0.8l-0.2,0.1v-0.1l-1.1-0.6
	l-0.2-0.1l-1-0.9v0l0.1-0.1l-0.4-2.2l-0.2-0.9l-0.1,0l0-0.1l0.5-0.9l-0.5-0.3L347.8,97.4L347.8,97.4"/>
<path id="path_181" class="st0" d="M197.1,196.9l-0.2,0.4l-0.7,0.8l-0.4,6.6l0,0l-0.1,0l-1.5-0.3l-1.1-0.1l-1.2,1.4l-0.1,0l-0.1-0.1
	l-1.6-3.4l-0.6,0l-0.6-3.6l1.6-1.8l0,0l0.5-1.1l4.5,0L197.1,196.9"/>
<path id="path_182" class="st0" d="M353.8,89.8l0.1,0l0,0.1l-0.2,0.4l-0.1,0.3l-0.3,0.4l0,0.4l0,0l-2.8-0.4l-3.4,1.8l-3-0.5l-0.1,0
	l-0.1-0.1l-0.5-0.8l0-0.1l0.1-0.4l0,0l0-0.2l1.5-0.6l0.4-0.3l1.3-1.1l0,0l0.2,0l2.7,0.3l2.4-0.1L353.8,89.8"/>
<path id="path_183" class="st0" d="M343.1,95.9L343.1,95.9l-0.2,0l-1.5,0.8l0,0.9l-3.9,0.8l0.1,0l0.1-0.1l-0.3-0.9l-0.4-0.8l0.5-0.3
	l0-0.1l0.1,0l1.5,0.3l0.5-0.4l2.2-0.6l0.1,0l0.4,0l0.1,0.3L343.1,95.9"/>
<path id="path_184" class="st0" d="M345.1,44.9l0.5,0.1l4.2,1.8l1.5,2.8l-0.4,0.9l1,1.2l-0.4,0l-2.6-0.1l-1.7,2.1l-0.1,1.5l-5.7,3.6
	l0.1,4l3.1,2.2l-4.7,0.6l1.1,3.7l-0.8,3.8l-2.9,0.6l0.2,0.8l-2.5,0.1l-0.2-2.4l-0.9-0.9l-2.3-5l0.2,0.1l1.7-2.4l0.5-2.8l-1.3-0.8
	l-0.5-3.5l2.9-2.7l0.8-3.5l2.9-2.2l0.4-1.6l5.7-2.4L345.1,44.9"/>
<path id="path_185" class="st0" d="M377.4,274.4L377.4,274.4L377.4,274.4l0.2,0.6l0,0.2l0.1,0.6l0,0.8l-0.1,0l-0.3,1.2l-1.4-0.2
	L377.4,274.4"/>
<path id="path_186" class="st0" d="M179.8,166L179.8,166l0.2,0l0,0.1l0,0.1L179.8,166L179.8,166"/>
<path id="path_187" class="st0" d="M395.6,118.6l0.1,0.3v0l-1.7,1.4l0,3l-3.8,4.4l-0.5,0.4l-0.5,0.3l-3.2,2.3l-0.7-0.1l-1.3-0.9
	l-0.2,0l0-0.1l0.1-0.8l0.1-0.1l-0.2-0.6l0-0.2l0.1-0.1l0.8-1l-0.4-2l-0.6,0.1l-0.2-0.6l-0.1-1.4l-0.3-0.4l0.1-0.7l0.1-0.2l1.2-2.1
	l1.6,0.3l1.4-0.6l2.4,0.5L395.6,118.6"/>
<path id="path_188" class="st0" d="M360.8,161.9l1,0.6l0,1.1l0.3,8.2l-2.1,1.4l-1.1,1.5l-0.2,3l-0.8,1.1l2.3,4.5l-0.1,0.3l-0.1,0
	l-2.3,1l-1.9,2.8l-3.8,1.1l-2.7,2.3l-1.6,0.9l-2.8,0.3l-0.2,0l0.1-0.2l-3.3-4.9l0.5-1l3-0.1l-1.8-6.1l-1.3-1.4l-0.4,0l-0.3-0.4
	l-0.4-0.6l-0.3-0.5l-0.2-1.1l1.7-4l2.3-2.9l0.4-7.4l-1.5-6.2l-0.3-1.4l0.7-0.4l1.3-0.7l4.7,2.7L360.8,161.9"/>
<path id="path_189" class="st0" d="M313.1,183.4l0.5,0l-0.1,0.3l-0.2,1.2l1.2,2l0.6,8.2l-0.7,0.2l-0.3,0.1l-1.3-1.6l-0.2-6.5
	l-1.1-4.1l-0.1-0.1l0.5,0.1l0.7,0.2l0.1,0.1L313.1,183.4"/>
<path id="path_190" class="st0" d="M520.1,186.3l0.2-0.9l1.6-3.9l-1.8-5.3l-2.1-3.1l0.7-0.5l0-2.2l-3.5-5.4l0.6-1.9l4.2-2.8l0.3,0.2
	l0,0.1l0.9,1.5l1.2,0.1l0.9,1.6l0.2,3.7l1.7-1.7l2.2,0.1l1.7-0.4l3.9,5.8l0.6,2.3l-0.4,1.7l-0.1,0.1l0,0l-3.4-0.2l-2.3,2.2l1.8,4.5
	l0,0l-4.5-4.3l-2,0.5l0.3,2.2l-1.3,5l0.6,2.7l1.4,1.4l4.2,5.4l0.7,0.6l-2.3,1.2l0.2-1l-2.1-0.7l-0.6-0.8L523,193l-2.3-2.8
	L520.1,186.3"/>
<path id="path_191" class="st0" d="M450.4,112.3l-0.4,0l-0.1-0.1L450.4,112.3 M446.1,118.8l0-0.2l-0.3-3.5l-1.7-1.4l5.3-4.1l1,1.7
	l0.1,0l0,0l-3.1,0.6l0.2,1.1l4.3-0.1l1.7,0.9l2.5-0.6l0.1,0l0,0.1l0.8,1.9l2.2,0.5l0.9,2.8l0,0l0,0l-2.9-0.6l-3.5,1.5l-1.1-3.3
	l-1.3-0.6L446.1,118.8L446.1,118.8"/>
<path id="path_192" class="st0" d="M420.8,108.6l0.5,0l1.5,0.1l2.3-2.6l3.1,0.9l0.6,1.4l2.6,0.4l2.7,3l7.2,4.4l2.2,0.8l0,1.2
	l0.1,0.3l-0.1,0l-3.2,0.7l-0.2,1.8l-2.5,1.2l0,1l-1.5,0.6l-2.1-1.1l-0.2,0l-0.1-0.1l-0.7-2.4l-1.5,0l-2.4-2l-4.3-1.6l-2-0.2
	l-4.4,2.1l-0.1-0.2l-0.7-3.6l-2.3-2.5l-0.2-2.4l1.7,0.6l1.3-1.2l-2.1-2.4l-2.1,1.4l-0.3-0.6l3.1-1.3l3,2.5L420.8,108.6L420.8,108.6"
	/>
<path id="path_193" class="st0" d="M574.5,233.2l0.5-0.2l-0.1,0.3l-0.3,0.3l-0.5-0.2L574.5,233.2 M576.1,232.4l0.2-0.2l0.8-0.7
	l3.4-0.6l0.3,0.7l-4.2,2l-0.3,0.3l0.1-0.8l0.1-0.2L576.1,232.4"/>
<path id="path_194" class="st0" d="M182.9,185.5l-1.9,0.2l0.7-1.5l1.2-0.3L182.9,185.5"/>
<path id="path_195" class="st0" d="M328.8,119.4l0.5-0.2l2.1-0.6l0.9,1l1.6,0l0.1,4l-1.8,2.2l0.6,1.7l1.9,1.1l0.2,0.1l0.1,1.9
	l-2.7,2.4l0.3,1.7l-1.1,1.2l-0.2,0.1l-0.1-0.6l-4.1-8.3l1.6-3.1l-0.2-1.8L328.8,119.4"/>
<path id="path_196" class="st0" d="M383.3,121.9l0.1-0.2l-1.7-1.6l-1.7,0.1l-1.1,1l-1.8,0.4l-3.1-1.9l-3.9,1.3l-3.8-2.2l-2.6-3.4
	l0.7-2.5l-1.4,0.2l1-2.3l4.4,0l1.5-0.9l-1.6-0.9l3.4,0l3.2-1.8l5-0.5l2.2,1.5l5.3,1l1.9,0.1l3-1.1l0.2-0.2l0.6,0.2l3.3,0.7l0,0
	l0,0.1l1.3,2.6l0.7,0l1,0.7l0.1,0.1l0,0l0.1,0.1l-0.1,0l-1.3,0.6l2.2,5.5v0l-0.1-0.1l-1.8-0.1l-2.2-0.3l-0.5,0.6l-0.2,0l-0.1-0.3
	L390,120l-2.4-0.5l-1.4,0.6l-1.6-0.3L383.3,121.9 M362.9,107.6L362.9,107.6l2.2-0.6l1-0.1l0,0.3l0.8,1.9l-2.8,1.1l-1.4-0.1l-0.1-0.1
	l0.6-0.7l-0.1-0.6l0-1.1L362.9,107.6"/>
<path id="path_197" class="st0" d="M562.6,154.8l-1.5,0l-0.7-1.3l0.9-4.7l0.7-0.5L562.6,154.8"/>
<path id="path_198" class="st0" d="M376.6,213.1L376.6,213.1l0.9-0.2h0.4h5.7h0.2h0.2l7.8,6.2l3.3,2.9l0,0.2l-0.8,3.8l1.4,1.7
	l-0.6,3.5l2.3,4.9l0,0.1l-4.2,2.3l-2.7,0.7l-4.3-0.3l-0.5,0l0-0.1l-1.2-4.4l-0.7-0.6l-2.2-0.2l0,0l-0.1-0.1l-2.2-1.2H379l-2-1.6
	l0-0.2l-0.1-0.2l-1.2-2.9l-1.6-4.8l0.1-1.2v-0.1l0.7,0l1.4-1.7l0.2-0.5l0.3-2.9l0-0.1l0.1,0l0.6-0.3l-0.1-1.7L376.6,213.1
	L376.6,213.1"/>
<path id="path_199" class="st0" d="M383.8,212.5l0,0.4h-0.2h-5.7h-0.4l-0.9,0.2l0,0h-0.1l-0.3,0.1l-1.5,0.7l-0.1,0l0-0.1l0.7-5
	l2.2-2.5l0.5-1.4l-0.9-0.5l0.3-2.5l-0.1-0.1l0.1-0.1l2.3-0.2l2.2-0.7l1.6-0.3l0.5-0.6l0.3,0.8l1.6,3.6l0.2,1.9l-2.2,3.6L383.8,212.5
	"/>
<path id="path_200" class="st0" d="M370.1,82.6L370.1,82.6l3.5-0.6l1.3,2.6l3,2.1l0.8-0.2l3.8,1.2l0.3-0.3l3.8,1.9l-0.7,0.6l0.8,1.8
	l-2,1l-0.9,1.8l-0.1,0l-5.3,1.5l-0.1,1.8l2.5,0.6l0.3,0.9l-2.4,0.6l-5.1-1.5l1.1-1.9l-4.7-0.9l-1.7,2.9l0,0.2l-1.3-0.1l-1.1,0.1
	l-0.3-0.1l-0.2-0.2l0.1-0.1l2.8-3.1l-1.9-2.8l-2.6-1.1l-2.2,0.3l0,0.1l-0.1,0l-3,1.3l-1.4-0.5l-2.4-0.1l-0.1,0l0,0l-0.7-0.6
	l-0.3-0.1l-0.3-0.4l-0.2,0l0-0.4l0.3-0.4l0.1-0.3l0.2-0.4l0-0.1l0.1,0l0.5,0l1.3-3.1l-0.4-2.5l-0.1-0.2l0,0l6.4-0.5l5.6,0.6l2.4-1.5
	L370.1,82.6"/>
<path id="path_201" class="st0" d="M194.8,284.8l0.1,0.2l1.7-0.2l6.7,4.6l0.7,1.1l0.7,3.1l-0.1,0.1l-2.5,2.8l-6-1.1l-1.4-1.4
	l-0.1-3.3l-0.1-0.2l-0.1-2.6l0-2L194.8,284.8L194.8,284.8"/>
<path id="path_202" class="st0" d="M81.9,90.3L82,90h51.7l0.8-0.6l2.1,1.5l1.6,0.8l7.5-0.1l5.3,3.7l3.1,3.4l-1.9,6.3l-1.9,1.9
	l0.7,0.7l3.1-1.3l4.8-1.5l1.2-2l3.7,0l1-1l4.1-2.3l6.9-0.6l5.5-5l1.8,0.2l-0.5,3.8l0.9,1.3l0,0.1l0.1,0.7l-3.3,1.3l-5.3,3.3
	l-0.9,1.5l1.8,1.5l-6,1.1l-2.8,1.4l0.1,0.9l-1.6,2.4l-3.3,3.4l-0.8-1.3l-0.5,5.9l-1.7,0.4l1,0.6l-1.2,1.7l-1.9,1l-7.6,5.4l-2.9,3.8
	l0.1,3.5l0.7,5.6l-0.2,2.7l-1.1,2.2l-1.2-0.3l-1.1-1.9l-1.3-4.2l0.7-3l-1.4-2.2l-3.4,0.3l-1.9-1.7l-2.8,0.5l-0.1-0.7l-5.3,1l1.2,0.5
	l-0.5,1.2l-2.4,0.7l-1.1-1.4l-1.3,0.5l-4.6,0l-0.9-0.4l-0.6,1.5l-3.8,1.9l-1.6,1.2l-0.4,4.5l0,0.2l-3.6-1.1l-2.9-8.3l-2.5,0
	l-1.8,1.9l-2.4-3.9l-2.3-2.9l-3.6,0.3l-0.2,0.8l-5.7,0l-5.9-2.6l-0.7-0.8l-4.8,0.4l0,0l-0.1-1.9l-5.1-2.9l0.2-1.5l-1.3-3.1l0.6-1.5
	l-1.6-4.8l2.2-7.9l0.8-2.2l4.7-7.9l0.4-0.4l1-4.5l3.4,0.4l-0.2,1.8L81.9,90.3 M73.3,72.8l1,2.6l-0.7,0.9l-1-2.3L73.3,72.8
	 M41.6,69.4l-0.5,1.1l-3.8,1l1.5-1.6L41.6,69.4 M22.1,56.4l3.9,0.7l-2,0.6l-2.7-0.6L22.1,56.4 M76.1,76.4L76.1,76.4l0.6-3.3
	l-1.8-2.2l1-1l0.1-1.8l-1.2-1L74,68.2l-1.3-0.1l0.7-1.5L71.8,67l0.4,1.2l-8.7-3.9l-1.1,0.1l-5.1-2.6l-1.7,0.8l-0.9,1.3l-6.8,2.3
	L47.3,65l6.5-2.6l-1.3-0.7l-2.7,0.9l-7.8,4l0.5,0.8l-7.5,3l-1.7,1L25.4,74L22,74.4l-1.8,1l0.1-0.9l3.2-0.9l0.8,0.4l4.6-2.4l5.9-3.8
	l-1.1-0.8l-1.7,1L32,67.2L29.6,67l-2,0.6l1.2-1.1l-2.5-1.6l-0.2-1.1l1-1.3l-0.9-1.4l5-2.9l2.3-1l6.9-1.2l2-2.4l-4.6,1l-3.2-0.1
	l-2.1-2.6l7.8-1.9l1.8,0l1.6,1.1l1.3-0.5l0.2-1.4l2.2,1.1l-1.1-1.3L43.5,49l-0.8-2l0.7-1.8l5-0.6l5.3-2.1l3.6-0.8l4.1-0.6l3.3-1
	l0.5,0.9l1.6-0.3l10.3,1.8l6,0.1l2.5,0.9l0.1,0l-5.4,5.5l-6.4,6.9l-6.7,7.7l3.4-0.1l0.6,2.5l1.6,0.2l1.3-0.9l1.9,0.2l1.3,6.5
	l1.6,1.6l-0.2,0.1l-0.6,0.7L78,74.9l-0.8,0.8l0,0.1L76.8,76l-0.5,0.3L76.1,76.4"/>
<path id="path_203" class="st0" d="M451.3,112.1l-0.4-0.2l-0.2-0.3L451.3,112.1 M420.8,108.6l-0.1-0.6l-1.8-8.4l10.1,1.6l2.3,2.1
	l4.7-0.1l0.8-0.4l2.8,2.1l0.4,2.1l1,0l0.9,2l3.4,1.3l1.1-1.7l3-2.1l0.1-0.1l0,0l-0.1,0.8l1.5,1.9l3.8,0.8l-3.8,1.4l0,0l-0.1,0
	l-1-1.7l-5.3,4.1l1.7,1.4l0.3,3.5l0,0.2l0-0.1l-0.6-0.1l-0.8-0.2l-0.5-0.1l-0.6,0.1l-0.1-0.3l0-1.2l-2.2-0.8l-7.2-4.4l-2.7-3
	l-2.6-0.4l-0.6-1.4l-3.1-0.9l-2.3,2.6l-1.5-0.1L420.8,108.6"/>
<path id="path_204" class="st0" d="M161.3,181.3l-0.1,0.1l-1.1,0.5l-0.5,5.1l0.9,1.2l1-0.7l-0.8-3.5l3.3-1.9l0.2-1.6l0.7,1.7
	l2.6,0.8l0.4,1.6l4.3,0l2.6,0.9l1.5-0.9l2.7-0.2l1.5,1.7l2.8,1.1l-1,1.9l2.3,0l0.3,0.2l0.3,0.7l-1.9,1.8l0.8,1.1l-0.9,0.8l-0.6,3.3
	l0.4,0.6l0.1,0l-1.8,2.2l-2.8,1.7l-2.6-0.9l0,3.4l1.3,0.9l-4.4,3.8l-2.4-0.7l-0.5-0.6l0-0.2l-1.4-3.4l0.5-1.6l-1-3.3l1-3.3l-4.2-0.2
	l-1.3-2l-4.9-1.3l0.2-2l-0.7-5.4l2-2.7L161.3,181.3"/>
<path id="path_205" class="st0" d="M523.5,155.4L523.5,155.4l3.6-0.4l1.6-1.4l4.2,0.8l0.3,1.9l2.8,1.2l-0.1,0l-2.3,1.3l0.3,0.6
	l-1.6,4.4l5.5,6.3l2.5,2.5l1.5,3.7l0.5,2.2l-0.5,4l-4.7,3.6l-1-0.9l0.2,2l-2.7,1.5l0-2.5l-0.9-1.3l-0.2-0.2l2.9-3.1l2.9-1.4
	l-0.4-5.9l0-0.1l0-0.3l-0.3-1.6l-2.5-3.7l-3.6-4.3l-2.7-1.5l1.8-1.9l-1.5-2l-3.2-0.9l-0.1-1.2l-1.9-1.5L523.5,155.4"/>
<path id="path_206" class="st0" d="M383.4,130.6l0.1,0l0.1,0.4l0,0.6l0.1,0.5l-0.1,0.5l0,0.2l-0.1,0l-0.8-0.5L383.4,130.6"/>
<path id="path_207" class="st0" d="M420.3,163.7l0.1,0.2l1.8,3.9l0.2,0.1l0.7,1.5l-1,0.4l-0.6,2l-6.5,3l-0.7,1l-3.5,1.2l-2.2,0.4
	l-3.9,1.9l-2.5-5.7l-0.6-0.7l0.3-2l-0.1-0.8l0.7-2.4l6.5,0.3l2.5-0.2l3-3.1l5.6-0.9L420.3,163.7"/>
<path id="path_208" class="st0" d="M372.7,265.1L372.7,265.1l0.6-0.1l3.2,0.5l0.2,0.1v0.1l1.1,5.4l-0.3,3.1l0,0.2l-0.1,0l-1.5,3.1
	l1.4,0.2l0.3-1.2l0.1,0l0.2,0l0.3,0.1l0.9,0l0.2,0l-0.1,0.6l-0.8,2.8l-2.7,2.9l-3.1,4.8l-7.6,6l-9.4,1.5l-3.6,1l-2.3-1l-1.7-3.5
	l0.8-3l-1-1.8l-2.2-5.9l-0.1-0.1l1.3-1.5l0.7,1.7l3.5,0.6l1.7-1.2l0.4-8l0-1l0.1,0.1l0.6,0.6l0.4,3.8l2.8,0.1l2.2-3.2l2.6,1l2.6-0.3
	l0.7-2l2-1.3l0.6-1.6l2.4-2.2l2-1.2L372.7,265.1 M369.9,280.9l1.6,1.2l-1.3,2.5l-1.6,1.3l-1.6-1.7l0.4-1.2L369.9,280.9"/>
<path id="path_209" class="st0" d="M370.2,284.6l-1.6,1.3l-1.6-1.7l0.4-1.2l2.4-2.1l1.6,1.2L370.2,284.6"/>
<path id="path_210" class="st0" d="M381.3,233.5l0.1,0.1l0,0.1l1.1,3.3l-0.4,0.2l-0.2,4.2l-1.1,2.4l0.8,1l0.1,0.2l-0.5,0.2l-3.1,1.2
	l-1.3,0.4l-1.2,1.9l0,0.3h-0.3l-5.6,4l-1.4,1.7l-3.3-0.3l-0.4-0.1l-0.3-0.4l-0.7-0.3l-2.4,0.2l-0.5,0.1l-0.4-0.4l-2.4-3.7l0.2-7.3
	h3.9l0.4-4.9l0-0.3l0.1,0l0.7,1.2l5,1.5l0.9-1l1,1.7l4.5,2.7l0.1-3l-1.6,0.5l-1.3-1.6l0.5-4.6l-0.5-1.4l4.7-2.6l0.4-0.1l0,0.2l2,1.6
	h0.2L381.3,233.5"/>
<path id="path_211" class="st0" d="M377,265.3l-0.3,0.3l-0.2-0.1l-3.2-0.5l-0.6,0.1h0l-0.1-0.1l-0.5-0.9l-2.2-0.7l-1.3-2.5l-2.4-2.7
	l-1.6-3.8l0-0.1l0.4,0.1l3.3,0.3l1.4-1.7l5.6-4h0.3l0,0.4l4.6,1.9l0.6,1.6l-0.6,7.3L377,265.3"/>
</svg>
